<svg xmlns="http://www.w3.org/2000/svg" id="SvgjsSvg11353" width="4096" height="1357.2929944474395" version="1.1" xmlns:xlink="http://www.w3.org/1999/xlink" xmlns:svgjs="http://svgjs.com/svgjs"><defs id="SvgjsDefs11354"></defs><g id="SvgjsG11355" transform="translate(328, 327.99999999999994) scale(34.4)" opacity="1"><defs id="SvgjsDefs4248"></defs><g id="SvgjsG4249" transform="scale(0.2132689846820557)" opacity="1"><g id="SvgjsG4250" class="YUjevXuaT" transform="translate(0, 0) scale(0.35707955542779735)" light-content="false" non-strokable="false" fill="#fb5c13"><circle cx="133.8" cy="133.8" r="133.8"></circle></g><g id="SvgjsG4251" class="lD5alGfP0t" transform="translate(81.47759719365295, 13.9918386537295) scale(-0.9788436171573386 0.9788436171573386)" light-content="true" non-strokable="false" fill="#ffffff"><path d="M42.325 60H27.6a1 1 0 0 1-1-1v-8.765h-6.464a1 1 0 0 1-1-1v-8.572H11a1.001 1.001 0 0 1-.827-1.561l4.765-7.022a20.116 20.116 0 0 1-.093-1.957C14.845 19.027 23.872 10 34.968 10S55.09 19.027 55.09 30.123c0 5.25-2.014 10.22-5.672 13.996-3.93 4.057-6.094 9.179-6.094 14.422V59a1 1 0 0 1-1 1zM28.6 58h12.732c.143-5.575 2.492-10.98 6.651-15.272a18.031 18.031 0 0 0 5.108-12.605C53.09 20.13 44.96 12 34.968 12s-18.123 8.13-18.123 18.123c0 .716.04 1.42.12 2.097a1 1 0 0 1-.165.68l-3.912 5.763h7.248a1 1 0 0 1 1 1v8.572H27.6a1 1 0 0 1 1 1V58z"></path><path d="M32.036 41.68a.999.999 0 0 1-.855-1.516l6.072-10.09h-6.339a1 1 0 0 1-.856-1.516l5.721-9.507a.997.997 0 0 1 1.372-.341.999.999 0 0 1 .341 1.372l-4.81 7.991h6.34a1 1 0 0 1 .856 1.516l-6.985 11.607a1 1 0 0 1-.857.485zM59 56.417h-8.708a1 1 0 0 1-1-1v-4.026a5.355 5.355 0 0 1 10.708 0v4.026a1 1 0 0 1-1 1zm-7.708-2H58v-3.026a3.354 3.354 0 0 0-6.708 0v3.026z"></path><path d="M51.854 60a1 1 0 0 1-1-1v-3.583a1 1 0 1 1 2 0V59a1 1 0 0 1-1 1zm5.583 0a1 1 0 0 1-1-1v-3.583a1 1 0 1 1 2 0V59a1 1 0 0 1-1 1zm-2.792-11.958a1 1 0 0 1-1-1v-3.74a3.18 3.18 0 0 1 3.178-3.177c.649 0 1.177-.528 1.177-1.177V32.3c0-.649-.528-1.177-1.177-1.177h-2.732a1 1 0 1 1 0-2h2.732A3.18 3.18 0 0 1 60 32.3v6.648a3.18 3.18 0 0 1-3.177 3.177c-.65 0-1.178.528-1.178 1.177v3.74a1 1 0 0 1-1 1z"></path></g><g id="SvgjsG4252" class="text" transform="translate(294.2014581547978, 56.94215960498578) scale(1)" light-content="false" fill="#2b2b2b"><path d="M-163.41 -12.89C-162.17 -13.27 -161.15 -13.92 -160.37 -14.85C-159.58 -15.77 -159.18 -16.91 -159.18 -18.26C-159.18 -19.33 -159.41 -20.23 -159.86 -20.94C-160.31 -21.66 -160.9 -22.24 -161.61 -22.68C-162.35 -23.1 -163.17 -23.41 -164.06 -23.6C-164.96 -23.78 -165.86 -23.88 -166.76 -23.88C-167.27 -23.86 -167.87 -23.84 -168.58 -23.83C-169.28 -23.82 -170 -23.82 -170.74 -23.82C-171.48 -23.82 -172.19 -23.82 -172.89 -23.83C-173.58 -23.84 -174.17 -23.86 -174.66 -23.88L-174.66 -22.74C-174.01 -22.72 -173.48 -22.67 -173.09 -22.6C-172.71 -22.53 -172.4 -22.39 -172.19 -22.21C-171.98 -22.02 -171.84 -21.76 -171.77 -21.43C-171.69 -21.11 -171.66 -20.68 -171.66 -20.15L-171.66 -4.07C-171.66 -3.46 -171.69 -2.97 -171.77 -2.61C-171.84 -2.24 -171.98 -1.96 -172.19 -1.77C-172.4 -1.58 -172.71 -1.45 -173.09 -1.39C-173.48 -1.33 -174.01 -1.3 -174.66 -1.3L-174.66 -0.19C-174.09 -0.19 -173.42 -0.19 -172.64 -0.21C-171.86 -0.22 -171.07 -0.22 -170.27 -0.22C-169.45 -0.22 -168.65 -0.22 -167.88 -0.21C-167.11 -0.19 -166.44 -0.19 -165.85 -0.19C-163 -0.19 -160.83 -0.79 -159.32 -2.01C-157.82 -3.22 -157.06 -4.76 -157.06 -6.63C-157.06 -8.34 -157.66 -9.74 -158.86 -10.83C-160.07 -11.93 -161.58 -12.61 -163.41 -12.89ZM-168.78 -13.3L-168.78 -22.52C-168.53 -22.52 -168.26 -22.53 -167.98 -22.54C-167.69 -22.55 -167.45 -22.55 -167.24 -22.55C-165.68 -22.55 -164.42 -22.26 -163.48 -21.67C-162.53 -21.08 -162.06 -19.94 -162.06 -18.26C-162.06 -16.38 -162.56 -15.09 -163.57 -14.37C-164.58 -13.66 -165.85 -13.3 -167.36 -13.3ZM-168.78 -4.04L-168.78 -11.91L-166.6 -11.91C-164.67 -11.91 -163.1 -11.46 -161.9 -10.57C-160.7 -9.67 -160.1 -8.24 -160.1 -6.29C-160.1 -4.66 -160.59 -3.47 -161.58 -2.7C-162.57 -1.93 -163.9 -1.55 -165.56 -1.55C-166.3 -1.55 -166.88 -1.56 -167.3 -1.6C-167.72 -1.63 -168.05 -1.73 -168.28 -1.9C-168.49 -2.06 -168.63 -2.31 -168.69 -2.64C-168.75 -2.96 -168.78 -3.43 -168.78 -4.04Z M-139 -7.8C-139 -9.02 -139.21 -10.13 -139.63 -11.12C-140.05 -12.11 -140.62 -12.95 -141.33 -13.65C-142.07 -14.34 -142.93 -14.88 -143.92 -15.26C-144.91 -15.64 -145.99 -15.82 -147.15 -15.82C-148.26 -15.82 -149.29 -15.6 -150.23 -15.16C-151.16 -14.72 -151.97 -14.13 -152.64 -13.39C-153.32 -12.66 -153.84 -11.79 -154.22 -10.79C-154.6 -9.79 -154.79 -8.74 -154.79 -7.64C-154.79 -6.42 -154.58 -5.32 -154.16 -4.33C-153.74 -3.34 -153.16 -2.5 -152.42 -1.8C-151.68 -1.11 -150.83 -0.57 -149.85 -0.21C-148.87 0.16 -147.83 0.35 -146.74 0.35C-145.66 0.35 -144.66 0.13 -143.72 -0.3C-142.78 -0.73 -141.97 -1.32 -141.27 -2.05C-140.58 -2.79 -140.02 -3.65 -139.61 -4.64C-139.2 -5.63 -139 -6.69 -139 -7.8ZM-142.16 -7.45C-142.16 -6.76 -142.25 -6.02 -142.42 -5.24C-142.6 -4.46 -142.87 -3.76 -143.23 -3.13C-143.61 -2.47 -144.09 -1.94 -144.68 -1.52C-145.27 -1.1 -145.98 -0.88 -146.8 -0.88C-147.68 -0.88 -148.44 -1.13 -149.06 -1.61C-149.68 -2.1 -150.18 -2.71 -150.56 -3.44C-150.96 -4.16 -151.24 -4.93 -151.41 -5.75C-151.58 -6.57 -151.66 -7.32 -151.66 -7.99C-151.66 -8.71 -151.58 -9.45 -151.43 -10.23C-151.27 -11.01 -151 -11.73 -150.62 -12.38C-150.26 -13.01 -149.79 -13.54 -149.2 -13.96C-148.61 -14.38 -147.89 -14.59 -147.05 -14.59C-146.19 -14.59 -145.45 -14.36 -144.82 -13.88C-144.2 -13.41 -143.69 -12.82 -143.29 -12.13C-142.91 -11.41 -142.63 -10.64 -142.44 -9.81C-142.25 -8.98 -142.16 -8.19 -142.16 -7.45Z M-135.43 -5.02L-136.66 -5.02L-136.22 -0.82C-135.63 -0.44 -134.97 -0.15 -134.26 0.05C-133.54 0.25 -132.83 0.35 -132.11 0.35C-131.14 0.35 -130.3 0.22 -129.58 -0.05C-128.87 -0.31 -128.29 -0.66 -127.85 -1.11C-127.38 -1.55 -127.04 -2.05 -126.82 -2.61C-126.6 -3.16 -126.49 -3.74 -126.49 -4.33C-126.49 -5.02 -126.6 -5.6 -126.84 -6.06C-127.07 -6.53 -127.36 -6.92 -127.72 -7.23C-128.08 -7.57 -128.48 -7.85 -128.94 -8.09C-129.39 -8.32 -129.84 -8.55 -130.28 -8.78C-130.78 -9.01 -131.27 -9.24 -131.73 -9.48C-132.2 -9.71 -132.61 -9.96 -132.96 -10.23C-133.32 -10.51 -133.61 -10.81 -133.82 -11.15C-134.03 -11.49 -134.13 -11.9 -134.13 -12.38C-134.13 -13.01 -133.88 -13.51 -133.37 -13.88C-132.87 -14.25 -132.27 -14.44 -131.57 -14.44C-130.67 -14.44 -129.94 -14.17 -129.39 -13.63C-128.85 -13.09 -128.5 -12.26 -128.35 -11.12L-127.15 -11.12L-127.37 -14.78C-128.11 -15.18 -128.78 -15.46 -129.38 -15.6C-129.98 -15.75 -130.59 -15.82 -131.23 -15.82C-132.05 -15.82 -132.78 -15.7 -133.42 -15.45C-134.06 -15.19 -134.61 -14.87 -135.05 -14.47C-135.49 -14.05 -135.83 -13.57 -136.06 -13.05C-136.29 -12.52 -136.41 -11.98 -136.41 -11.43C-136.41 -10.34 -136.03 -9.43 -135.29 -8.7C-134.54 -7.98 -133.56 -7.31 -132.36 -6.7C-131.92 -6.46 -131.51 -6.24 -131.13 -6.02C-130.75 -5.8 -130.42 -5.56 -130.12 -5.31C-129.85 -5.05 -129.63 -4.76 -129.46 -4.44C-129.29 -4.11 -129.21 -3.73 -129.21 -3.29C-129.21 -2.72 -129.39 -2.19 -129.77 -1.71C-130.15 -1.22 -130.85 -0.98 -131.86 -0.98C-132.45 -0.98 -132.95 -1.1 -133.36 -1.33C-133.77 -1.56 -134.12 -1.86 -134.42 -2.24C-134.69 -2.62 -134.91 -3.05 -135.08 -3.54C-135.25 -4.02 -135.36 -4.52 -135.43 -5.02Z M-120.08 -4.45L-120.08 -13.2L-115.05 -13.2L-115.05 -14.94L-120.08 -14.94L-120.08 -18.76L-121.47 -18.76C-121.7 -17.41 -122.07 -16.36 -122.59 -15.6C-123.1 -14.85 -123.9 -14.33 -124.97 -14.06L-124.97 -13.2L-122.79 -13.2L-122.79 -2.94C-122.79 -1.86 -122.5 -1.05 -121.91 -0.49C-121.32 0.07 -120.51 0.35 -119.48 0.35C-118.63 0.35 -117.83 0.15 -117.06 -0.25C-116.29 -0.65 -115.59 -1.18 -114.96 -1.83L-115.59 -2.75C-115.97 -2.39 -116.48 -2.1 -117.11 -1.86C-117.74 -1.63 -118.2 -1.52 -118.5 -1.52C-118.96 -1.52 -119.34 -1.71 -119.63 -2.1C-119.93 -2.49 -120.08 -3.27 -120.08 -4.45Z M-97.74 -7.8C-97.74 -9.02 -97.96 -10.13 -98.38 -11.12C-98.8 -12.11 -99.37 -12.95 -100.08 -13.65C-100.82 -14.34 -101.68 -14.88 -102.67 -15.26C-103.66 -15.64 -104.74 -15.82 -105.89 -15.82C-107.01 -15.82 -108.04 -15.6 -108.97 -15.16C-109.91 -14.72 -110.72 -14.13 -111.39 -13.39C-112.06 -12.66 -112.59 -11.79 -112.97 -10.79C-113.35 -9.79 -113.54 -8.74 -113.54 -7.64C-113.54 -6.42 -113.33 -5.32 -112.91 -4.33C-112.49 -3.34 -111.91 -2.5 -111.17 -1.8C-110.43 -1.11 -109.57 -0.57 -108.59 -0.21C-107.62 0.16 -106.58 0.35 -105.48 0.35C-104.41 0.35 -103.4 0.13 -102.47 -0.3C-101.53 -0.73 -100.71 -1.32 -100.02 -2.05C-99.32 -2.79 -98.77 -3.65 -98.36 -4.64C-97.95 -5.63 -97.74 -6.69 -97.74 -7.8ZM-100.9 -7.45C-100.9 -6.76 -100.99 -6.02 -101.17 -5.24C-101.35 -4.46 -101.62 -3.76 -101.98 -3.13C-102.36 -2.47 -102.84 -1.94 -103.43 -1.52C-104.02 -1.1 -104.73 -0.88 -105.55 -0.88C-106.43 -0.88 -107.18 -1.13 -107.81 -1.61C-108.43 -2.1 -108.93 -2.71 -109.31 -3.44C-109.71 -4.16 -109.99 -4.93 -110.16 -5.75C-110.33 -6.57 -110.41 -7.32 -110.41 -7.99C-110.41 -8.71 -110.33 -9.45 -110.17 -10.23C-110.02 -11.01 -109.75 -11.73 -109.37 -12.38C-109.01 -13.01 -108.54 -13.54 -107.95 -13.96C-107.36 -14.38 -106.64 -14.59 -105.8 -14.59C-104.94 -14.59 -104.19 -14.36 -103.57 -13.88C-102.95 -13.41 -102.44 -12.82 -102.04 -12.13C-101.66 -11.41 -101.38 -10.64 -101.19 -9.81C-101 -8.98 -100.9 -8.19 -100.9 -7.45Z M-90.8 -15.79L-90.8 -15.79L-92 -15.79C-92.48 -15.35 -93.02 -15.01 -93.61 -14.78C-94.2 -14.55 -94.83 -14.38 -95.5 -14.28L-95.5 -13.3C-94.66 -13.3 -94.14 -13.16 -93.95 -12.87C-93.76 -12.59 -93.67 -11.93 -93.67 -10.9L-93.67 -3.57C-93.67 -2.73 -93.8 -2.14 -94.06 -1.82C-94.33 -1.49 -94.92 -1.33 -95.85 -1.33L-95.85 -0.16C-95.58 -0.18 -95.1 -0.19 -94.43 -0.21C-93.75 -0.22 -93.04 -0.22 -92.28 -0.22C-91.52 -0.22 -90.81 -0.22 -90.13 -0.21C-89.46 -0.19 -88.96 -0.18 -88.65 -0.16L-88.65 -1.33C-89.64 -1.33 -90.27 -1.49 -90.54 -1.82C-90.82 -2.14 -90.95 -2.73 -90.95 -3.57L-90.95 -11.78C-90.72 -11.97 -90.43 -12.18 -90.09 -12.41C-89.74 -12.65 -89.37 -12.86 -89 -13.05C-88.62 -13.26 -88.24 -13.42 -87.87 -13.55C-87.51 -13.68 -87.18 -13.75 -86.91 -13.77C-85.94 -13.77 -85.23 -13.56 -84.78 -13.14C-84.33 -12.72 -84.1 -12 -84.1 -10.99L-84.1 -3.57C-84.1 -2.73 -84.23 -2.14 -84.49 -1.82C-84.76 -1.49 -85.34 -1.33 -86.25 -1.33L-86.25 -0.16C-85.97 -0.16 -85.5 -0.16 -84.83 -0.17C-84.15 -0.18 -83.44 -0.19 -82.68 -0.19L-80.53 -0.19L-79.08 -0.19L-79.08 -1.33C-80.05 -1.33 -80.67 -1.49 -80.96 -1.82C-81.24 -2.14 -81.38 -2.73 -81.38 -3.57L-81.38 -10.96C-81.38 -12.31 -81.67 -13.46 -82.24 -14.4C-82.8 -15.35 -83.82 -15.82 -85.27 -15.82C-85.82 -15.82 -86.33 -15.76 -86.82 -15.62C-87.3 -15.48 -87.76 -15.3 -88.21 -15.07C-88.67 -14.84 -89.12 -14.57 -89.56 -14.26C-90.01 -13.96 -90.47 -13.63 -90.95 -13.3C-90.95 -13.59 -90.94 -13.94 -90.92 -14.34C-90.9 -14.74 -90.86 -15.22 -90.8 -15.79Z M-44.93 0.16L-44.93 -19.74C-44.93 -20.42 -44.91 -20.95 -44.85 -21.35C-44.8 -21.75 -44.67 -22.05 -44.46 -22.24C-44.25 -22.45 -43.94 -22.58 -43.53 -22.65C-43.12 -22.71 -42.55 -22.74 -41.84 -22.74L-41.84 -23.94C-42.22 -23.92 -42.78 -23.91 -43.53 -23.9C-44.27 -23.88 -45.06 -23.88 -45.88 -23.88C-46.7 -23.88 -47.49 -23.88 -48.25 -23.9C-49.01 -23.91 -49.59 -23.92 -49.99 -23.94L-49.99 -22.74C-49.31 -22.72 -48.77 -22.67 -48.36 -22.6C-47.95 -22.53 -47.64 -22.38 -47.43 -22.17C-47.2 -21.96 -47.04 -21.66 -46.97 -21.27C-46.9 -20.88 -46.86 -20.37 -46.86 -19.74L-46.86 -4.55L-62.87 -23.91C-63.1 -23.89 -63.46 -23.87 -63.95 -23.86C-64.43 -23.85 -64.95 -23.85 -65.49 -23.85L-67.07 -23.85C-67.58 -23.85 -67.96 -23.87 -68.21 -23.91L-68.21 -22.74C-66.72 -22.74 -65.66 -22.54 -65.05 -22.13C-64.44 -21.72 -64.14 -20.91 -64.14 -19.71L-64.14 -4.49C-64.14 -3.77 -64.19 -3.21 -64.29 -2.8C-64.4 -2.38 -64.59 -2.06 -64.86 -1.83C-65.12 -1.62 -65.47 -1.48 -65.92 -1.42C-66.37 -1.36 -66.95 -1.33 -67.64 -1.33L-67.64 -0.16C-67.14 -0.18 -66.51 -0.19 -65.76 -0.21C-65.02 -0.22 -64.24 -0.22 -63.44 -0.22C-62.64 -0.22 -61.87 -0.22 -61.12 -0.21C-60.37 -0.19 -59.74 -0.19 -59.21 -0.19L-59.21 -1.33C-59.86 -1.33 -60.39 -1.35 -60.79 -1.41C-61.19 -1.46 -61.49 -1.6 -61.7 -1.83C-61.94 -2.04 -62.09 -2.36 -62.16 -2.78C-62.24 -3.2 -62.27 -3.78 -62.27 -4.52L-62.27 -19.52L-46.38 0.16Z M-37.67 -9.41L-28.85 -9.41C-28.64 -9.41 -28.48 -9.42 -28.35 -9.44C-28.22 -9.47 -28.14 -9.51 -28.1 -9.57C-28.03 -9.63 -28 -9.73 -27.99 -9.86C-27.98 -9.98 -27.97 -10.16 -27.97 -10.39C-27.99 -11.32 -28.17 -12.12 -28.51 -12.81C-28.84 -13.49 -29.28 -14.06 -29.8 -14.5C-30.33 -14.94 -30.93 -15.27 -31.6 -15.49C-32.28 -15.71 -32.94 -15.82 -33.59 -15.82C-34.56 -15.82 -35.46 -15.63 -36.29 -15.24C-37.12 -14.85 -37.84 -14.29 -38.43 -13.55C-39.04 -12.81 -39.51 -11.91 -39.85 -10.85C-40.18 -9.79 -40.35 -8.58 -40.35 -7.23C-40.35 -6.16 -40.19 -5.16 -39.86 -4.25C-39.54 -3.33 -39.07 -2.53 -38.46 -1.83C-37.87 -1.16 -37.17 -0.63 -36.36 -0.24C-35.55 0.15 -34.67 0.35 -33.72 0.35C-32.39 0.35 -31.21 -0.02 -30.18 -0.74C-29.15 -1.47 -28.31 -2.4 -27.65 -3.54L-28.66 -4.14C-29.23 -3.44 -29.88 -2.88 -30.61 -2.46C-31.33 -2.04 -32.17 -1.83 -33.12 -1.83C-34.47 -1.83 -35.54 -2.34 -36.34 -3.36C-37.14 -4.39 -37.58 -5.68 -37.67 -7.23C-37.71 -7.8 -37.72 -8.29 -37.71 -8.69C-37.7 -9.09 -37.69 -9.33 -37.67 -9.41ZM-31.44 -10.8L-37.48 -10.8C-37.31 -11.88 -36.91 -12.75 -36.28 -13.42C-35.65 -14.1 -34.79 -14.44 -33.72 -14.44C-32.81 -14.44 -32.1 -14.1 -31.57 -13.44C-31.04 -12.78 -30.78 -12.11 -30.78 -11.43C-30.78 -11.16 -30.83 -10.99 -30.92 -10.91C-31.02 -10.84 -31.19 -10.8 -31.44 -10.8Z M-14.58 -2.21L-14.58 -0.16C-14.58 0.03 -14.49 0.19 -14.31 0.33C-14.13 0.47 -13.94 0.49 -13.72 0.41C-13.43 0.33 -13.09 0.23 -12.7 0.11C-12.31 -0.01 -11.92 -0.12 -11.54 -0.22C-11.17 -0.31 -10.8 -0.39 -10.46 -0.47C-10.11 -0.56 -9.83 -0.62 -9.62 -0.66L-9.62 -1.64C-10.54 -1.58 -11.14 -1.6 -11.42 -1.71C-11.69 -1.81 -11.83 -2.15 -11.83 -2.72L-11.83 -12.45C-11.83 -12.76 -11.82 -13.22 -11.8 -13.83C-11.78 -14.45 -11.74 -14.96 -11.7 -15.38C-12.52 -15.32 -13.45 -15.26 -14.47 -15.19C-15.49 -15.13 -16.27 -15.1 -16.82 -15.1L-16.82 -14.12C-15.98 -14.06 -15.39 -13.92 -15.05 -13.72C-14.71 -13.52 -14.55 -13.1 -14.55 -12.45L-14.55 -3.79C-15.18 -3.16 -15.93 -2.65 -16.8 -2.27C-17.68 -1.9 -18.44 -1.71 -19.09 -1.71C-19.89 -1.71 -20.48 -1.94 -20.85 -2.4C-21.22 -2.86 -21.4 -3.9 -21.4 -5.5L-21.4 -12.45C-21.4 -12.76 -21.39 -13.22 -21.37 -13.83C-21.35 -14.45 -21.32 -14.96 -21.27 -15.38C-22.09 -15.32 -22.96 -15.26 -23.86 -15.19C-24.77 -15.13 -25.51 -15.1 -26.07 -15.1L-26.07 -14.12C-25.25 -14.06 -24.72 -13.93 -24.48 -13.74C-24.24 -13.55 -24.12 -13.12 -24.12 -12.45L-24.12 -3.79C-24.12 -3.03 -24.01 -2.4 -23.78 -1.88C-23.56 -1.36 -23.27 -0.94 -22.92 -0.6C-22.56 -0.26 -22.16 -0.02 -21.72 0.13C-21.27 0.27 -20.83 0.35 -20.39 0.35C-19.23 0.35 -18.23 0.13 -17.37 -0.32C-16.52 -0.76 -15.59 -1.39 -14.58 -2.21Z M-3.08 -12.76C-3.08 -13.22 -3.07 -13.72 -3.05 -14.25C-3.03 -14.77 -2.98 -15.29 -2.92 -15.79L-4.09 -15.79C-4.6 -15.35 -5.14 -15.01 -5.73 -14.78C-6.32 -14.55 -6.95 -14.38 -7.63 -14.28L-7.63 -13.3C-6.79 -13.3 -6.27 -13.16 -6.08 -12.87C-5.89 -12.59 -5.8 -11.93 -5.8 -10.9L-5.8 -3.57C-5.8 -3.06 -5.82 -2.66 -5.88 -2.35C-5.93 -2.05 -6.04 -1.82 -6.21 -1.67C-6.38 -1.53 -6.62 -1.43 -6.95 -1.39C-7.28 -1.35 -7.72 -1.33 -8.29 -1.33L-8.29 -0.16C-7.83 -0.18 -7.2 -0.19 -6.4 -0.21C-5.6 -0.22 -4.76 -0.22 -3.9 -0.22C-3.06 -0.22 -2.25 -0.22 -1.47 -0.21C-0.69 -0.19 -0.07 -0.18 0.39 -0.16L0.39 -1.33C-0.41 -1.33 -1.03 -1.35 -1.48 -1.41C-1.94 -1.46 -2.29 -1.56 -2.54 -1.71C-2.77 -1.87 -2.92 -2.11 -2.98 -2.4C-3.05 -2.7 -3.08 -3.08 -3.08 -3.57L-3.08 -10.2C-3.08 -10.58 -3 -10.94 -2.84 -11.28C-2.68 -11.61 -2.48 -11.9 -2.23 -12.13C-1.97 -12.38 -1.71 -12.58 -1.44 -12.73C-1.16 -12.88 -0.91 -12.95 -0.68 -12.95C-0.49 -12.95 -0.33 -12.9 -0.21 -12.81C-0.08 -12.71 0.06 -12.61 0.21 -12.51C0.35 -12.4 0.53 -12.31 0.73 -12.22C0.93 -12.14 1.18 -12.1 1.5 -12.1C1.92 -12.1 2.32 -12.27 2.68 -12.62C3.05 -12.97 3.24 -13.39 3.24 -13.9C3.24 -14.59 3 -15.09 2.53 -15.38C2.05 -15.68 1.6 -15.82 1.15 -15.82C0.46 -15.82 -0.29 -15.52 -1.09 -14.91C-1.89 -14.3 -2.55 -13.58 -3.08 -12.76Z M20.61 -7.8C20.61 -9.02 20.4 -10.13 19.98 -11.12C19.56 -12.11 18.99 -12.95 18.27 -13.65C17.54 -14.34 16.67 -14.88 15.68 -15.26C14.69 -15.64 13.62 -15.82 12.46 -15.82C11.34 -15.82 10.32 -15.6 9.38 -15.16C8.44 -14.72 7.64 -14.13 6.96 -13.39C6.29 -12.66 5.76 -11.79 5.39 -10.79C5.01 -9.79 4.82 -8.74 4.82 -7.64C4.82 -6.42 5.03 -5.32 5.45 -4.33C5.87 -3.34 6.45 -2.5 7.19 -1.8C7.92 -1.11 8.78 -0.57 9.76 -0.21C10.74 0.16 11.78 0.35 12.87 0.35C13.95 0.35 14.95 0.13 15.89 -0.3C16.83 -0.73 17.64 -1.32 18.34 -2.05C19.03 -2.79 19.58 -3.65 19.99 -4.64C20.4 -5.63 20.61 -6.69 20.61 -7.8ZM17.45 -7.45C17.45 -6.76 17.36 -6.02 17.18 -5.24C17 -4.46 16.74 -3.76 16.38 -3.13C16 -2.47 15.51 -1.94 14.92 -1.52C14.34 -1.1 13.63 -0.88 12.81 -0.88C11.92 -0.88 11.17 -1.13 10.55 -1.61C9.93 -2.1 9.43 -2.71 9.05 -3.44C8.65 -4.16 8.37 -4.93 8.2 -5.75C8.03 -6.57 7.94 -7.32 7.94 -7.99C7.94 -8.71 8.02 -9.45 8.18 -10.23C8.34 -11.01 8.61 -11.73 8.99 -12.38C9.34 -13.01 9.82 -13.54 10.41 -13.96C11 -14.38 11.71 -14.59 12.56 -14.59C13.42 -14.59 14.16 -14.36 14.78 -13.88C15.4 -13.41 15.91 -12.82 16.31 -12.13C16.69 -11.41 16.98 -10.64 17.17 -9.81C17.36 -8.98 17.45 -8.19 17.45 -7.45Z M27.65 -15.79L27.65 -15.79L26.45 -15.79C25.97 -15.35 25.43 -15.01 24.84 -14.78C24.25 -14.55 23.62 -14.38 22.95 -14.28L22.95 -13.3C23.79 -13.3 24.31 -13.16 24.5 -12.87C24.68 -12.59 24.78 -11.93 24.78 -10.9L24.78 -3.47C24.78 -2.63 24.65 -2.06 24.38 -1.77C24.12 -1.47 23.51 -1.33 22.54 -1.33L22.54 -0.16C23 -0.18 23.55 -0.19 24.18 -0.19L26.14 -0.19C26.81 -0.19 27.46 -0.18 28.1 -0.17C28.73 -0.16 29.28 -0.16 29.74 -0.16L29.74 -1.33C28.77 -1.33 28.15 -1.47 27.89 -1.75C27.63 -2.04 27.5 -2.61 27.5 -3.47L27.5 -11.69C27.73 -11.92 28.02 -12.16 28.38 -12.4C28.74 -12.64 29.11 -12.87 29.49 -13.08C29.84 -13.27 30.2 -13.43 30.56 -13.57C30.92 -13.7 31.22 -13.77 31.48 -13.77C32.07 -13.77 32.53 -13.66 32.88 -13.42C33.23 -13.19 33.5 -12.89 33.69 -12.51C33.86 -12.13 33.97 -11.7 34.03 -11.21C34.1 -10.73 34.13 -10.24 34.13 -9.76L34.13 -3.47C34.13 -2.63 34 -2.06 33.75 -1.77C33.5 -1.47 32.92 -1.33 32.01 -1.33L32.01 -0.16C32.43 -0.18 32.96 -0.19 33.59 -0.19L35.55 -0.19C36.22 -0.19 36.88 -0.18 37.52 -0.17C38.17 -0.16 38.71 -0.16 39.15 -0.16L39.15 -1.33C38.16 -1.33 37.53 -1.47 37.26 -1.75C36.98 -2.04 36.85 -2.61 36.85 -3.47L36.85 -11.81C37.06 -12 37.32 -12.21 37.64 -12.45C37.95 -12.68 38.3 -12.89 38.68 -13.08C39.04 -13.27 39.4 -13.43 39.78 -13.57C40.16 -13.7 40.51 -13.77 40.83 -13.77C41.42 -13.77 41.88 -13.65 42.23 -13.41C42.58 -13.17 42.85 -12.86 43.04 -12.48C43.21 -12.1 43.32 -11.67 43.38 -11.2C43.45 -10.72 43.48 -10.24 43.48 -9.76L43.48 -3.47C43.48 -2.61 43.36 -2.04 43.12 -1.75C42.87 -1.47 42.29 -1.33 41.36 -1.33L41.36 -0.16C41.8 -0.18 42.34 -0.19 42.96 -0.19L44.9 -0.19C45.55 -0.19 46.18 -0.18 46.8 -0.17C47.41 -0.16 47.93 -0.16 48.37 -0.16L48.37 -1.33C47.43 -1.33 46.83 -1.47 46.57 -1.75C46.32 -2.04 46.2 -2.61 46.2 -3.47L46.2 -10.9C46.2 -11.53 46.12 -12.14 45.97 -12.73C45.83 -13.32 45.6 -13.85 45.28 -14.31C44.96 -14.77 44.56 -15.14 44.06 -15.41C43.57 -15.69 42.97 -15.82 42.28 -15.82C41.08 -15.82 40.05 -15.57 39.2 -15.07C38.35 -14.56 37.48 -13.96 36.59 -13.27C36.4 -14.09 35.98 -14.72 35.33 -15.16C34.68 -15.6 33.93 -15.82 33.09 -15.82C32.5 -15.82 31.96 -15.75 31.48 -15.6C30.99 -15.46 30.53 -15.27 30.09 -15.04C29.64 -14.8 29.21 -14.53 28.79 -14.21C28.37 -13.9 27.94 -13.58 27.5 -13.27C27.5 -13.52 27.51 -13.86 27.53 -14.29C27.55 -14.72 27.59 -15.22 27.65 -15.79Z M54.82 -3.25L54.82 -12.1C54.82 -12.6 54.83 -13.2 54.85 -13.9C54.87 -14.59 54.91 -15.22 54.98 -15.79L53.81 -15.79C53.3 -15.35 52.75 -15.01 52.17 -14.78C51.58 -14.55 50.94 -14.38 50.27 -14.28L50.27 -13.3C51.11 -13.3 51.63 -13.16 51.82 -12.87C52.01 -12.59 52.1 -11.93 52.1 -10.9L52.1 -3.25C52.1 -2.39 51.98 -1.85 51.74 -1.64C51.5 -1.43 50.89 -1.33 49.92 -1.33L49.92 -0.19C50.49 -0.19 51.08 -0.2 51.69 -0.22C52.3 -0.24 52.92 -0.25 53.56 -0.25C53.83 -0.25 54.12 -0.25 54.42 -0.24C54.73 -0.23 55.03 -0.22 55.32 -0.22C55.62 -0.2 55.91 -0.19 56.19 -0.19L57.06 -0.19L57.06 -1.33C56.05 -1.33 55.42 -1.43 55.18 -1.64C54.94 -1.85 54.82 -2.39 54.82 -3.25ZM53.37 -24.23C52.82 -24.23 52.36 -24.04 51.99 -23.66C51.62 -23.28 51.44 -22.83 51.44 -22.3C51.44 -21.75 51.62 -21.29 51.99 -20.93C52.36 -20.56 52.82 -20.37 53.37 -20.37C53.89 -20.37 54.35 -20.56 54.74 -20.93C55.13 -21.29 55.32 -21.75 55.32 -22.3C55.32 -22.83 55.13 -23.28 54.74 -23.66C54.35 -24.04 53.89 -24.23 53.37 -24.23Z M63.57 -15.79L63.57 -15.79L62.37 -15.79C61.88 -15.35 61.35 -15.01 60.76 -14.78C60.17 -14.55 59.54 -14.38 58.86 -14.28L58.86 -13.3C59.7 -13.3 60.22 -13.16 60.41 -12.87C60.6 -12.59 60.69 -11.93 60.69 -10.9L60.69 -3.57C60.69 -2.73 60.56 -2.14 60.3 -1.82C60.04 -1.49 59.44 -1.33 58.51 -1.33L58.51 -0.16C58.79 -0.18 59.26 -0.19 59.94 -0.21C60.61 -0.22 61.33 -0.22 62.08 -0.22C62.84 -0.22 63.56 -0.22 64.23 -0.21C64.91 -0.19 65.4 -0.18 65.72 -0.16L65.72 -1.33C64.73 -1.33 64.09 -1.49 63.82 -1.82C63.55 -2.14 63.41 -2.73 63.41 -3.57L63.41 -11.78C63.64 -11.97 63.93 -12.18 64.28 -12.41C64.63 -12.65 64.99 -12.86 65.37 -13.05C65.75 -13.26 66.12 -13.42 66.49 -13.55C66.86 -13.68 67.18 -13.75 67.45 -13.77C68.42 -13.77 69.13 -13.56 69.59 -13.14C70.04 -12.72 70.26 -12 70.26 -10.99L70.26 -3.57C70.26 -2.73 70.13 -2.14 69.87 -1.82C69.61 -1.49 69.02 -1.33 68.12 -1.33L68.12 -0.16C68.39 -0.16 68.86 -0.16 69.54 -0.17C70.21 -0.18 70.93 -0.19 71.69 -0.19L73.83 -0.19L75.29 -0.19L75.29 -1.33C74.32 -1.33 73.69 -1.49 73.41 -1.82C73.12 -2.14 72.98 -2.73 72.98 -3.57L72.98 -10.96C72.98 -12.31 72.7 -13.46 72.13 -14.4C71.56 -15.35 70.55 -15.82 69.1 -15.82C68.55 -15.82 68.03 -15.76 67.55 -15.62C67.06 -15.48 66.6 -15.3 66.16 -15.07C65.69 -14.84 65.24 -14.57 64.8 -14.26C64.36 -13.96 63.89 -13.63 63.41 -13.3C63.41 -13.59 63.42 -13.94 63.44 -14.34C63.46 -14.74 63.5 -15.22 63.57 -15.79Z M88.46 -11.5L88.46 -3.79C88.46 -3.52 88.32 -3.25 88.05 -3C87.77 -2.75 87.45 -2.53 87.07 -2.34C86.71 -2.15 86.34 -2 85.95 -1.9C85.56 -1.79 85.26 -1.74 85.05 -1.74C83.49 -1.74 82.25 -2.3 81.32 -3.41C80.39 -4.53 79.93 -5.98 79.93 -7.77C79.93 -8.87 80.08 -9.83 80.37 -10.66C80.67 -11.49 81.06 -12.19 81.54 -12.76C82.03 -13.31 82.57 -13.72 83.17 -14.01C83.77 -14.29 84.37 -14.44 84.98 -14.44C85.32 -14.44 85.69 -14.39 86.11 -14.29C86.52 -14.2 86.89 -14.05 87.23 -13.83C87.58 -13.6 87.88 -13.3 88.11 -12.92C88.34 -12.54 88.46 -12.07 88.46 -11.5ZM88.46 -21.01L88.46 -15.16C87.95 -15.41 87.47 -15.59 87.01 -15.68C86.54 -15.78 85.99 -15.82 85.36 -15.82C84.23 -15.82 83.16 -15.59 82.16 -15.11C81.16 -14.64 80.29 -14 79.55 -13.2C78.79 -12.42 78.2 -11.51 77.78 -10.46C77.36 -9.4 77.15 -8.31 77.15 -7.17C77.15 -6.2 77.3 -5.27 77.61 -4.37C77.91 -3.48 78.35 -2.68 78.92 -1.99C79.49 -1.3 80.17 -0.74 80.97 -0.32C81.77 0.11 82.67 0.32 83.66 0.32C84.6 0.32 85.52 0.14 86.41 -0.21C87.29 -0.55 87.97 -0.97 88.46 -1.45L88.46 0.03C88.46 0.22 88.57 0.37 88.81 0.47C89.04 0.58 89.31 0.55 89.63 0.38C90.22 0.11 90.9 -0.17 91.66 -0.46C92.43 -0.74 93.02 -0.95 93.42 -1.07L93.42 -2.02C92.47 -1.96 91.86 -1.98 91.59 -2.1C91.31 -2.22 91.17 -2.59 91.17 -3.22L91.17 -22.21C91.17 -22.69 91.19 -23.28 91.22 -23.99C91.25 -24.7 91.3 -25.33 91.36 -25.9L90.2 -25.9C89.69 -25.46 89.11 -25.1 88.44 -24.81C87.78 -24.53 87.1 -24.32 86.41 -24.2L86.41 -23.25C86.87 -23.25 87.24 -23.23 87.51 -23.2C87.78 -23.17 87.99 -23.08 88.14 -22.93C88.27 -22.78 88.35 -22.56 88.4 -22.25C88.44 -21.95 88.46 -21.53 88.46 -21.01Z M98.28 0.95C98.49 0.86 98.6 0.95 98.6 1.2C98.6 1.85 98.39 2.43 97.97 2.94C97.54 3.44 96.96 3.84 96.2 4.14L96.8 4.99C98.04 4.57 98.98 3.9 99.61 2.98C100.24 2.07 100.56 1.02 100.56 -0.16C100.56 -1.02 100.34 -1.74 99.91 -2.32C99.48 -2.9 98.86 -3.19 98.06 -3.19C97.41 -3.19 96.88 -2.97 96.47 -2.53C96.05 -2.08 95.85 -1.59 95.85 -1.04C95.85 -0.77 95.92 -0.49 96.05 -0.22C96.19 0.05 96.37 0.29 96.59 0.49C96.81 0.69 97.07 0.84 97.37 0.93C97.66 1.03 97.97 1.03 98.28 0.95Z M130.69 -0.19L132.05 -5.69L130.75 -5.69C130.52 -4.8 130.27 -4.09 129.99 -3.55C129.72 -3.02 129.39 -2.59 129.02 -2.27C128.62 -1.98 128.13 -1.78 127.55 -1.69C126.97 -1.6 126.26 -1.55 125.41 -1.55C124.24 -1.55 123.27 -1.57 122.52 -1.63C121.78 -1.68 121.2 -1.81 120.8 -2.02C120.38 -2.23 120.1 -2.54 119.95 -2.94C119.8 -3.34 119.73 -3.89 119.73 -4.58L119.73 -19.84C119.73 -20.49 119.77 -21.01 119.84 -21.38C119.91 -21.76 120.06 -22.05 120.27 -22.24C120.5 -22.45 120.81 -22.58 121.21 -22.63C121.61 -22.68 122.14 -22.72 122.79 -22.74L122.79 -23.94C122.35 -23.9 121.71 -23.87 120.87 -23.86C120.02 -23.85 119.14 -23.85 118.21 -23.85C117.31 -23.85 116.45 -23.85 115.64 -23.86C114.83 -23.87 114.23 -23.9 113.85 -23.94L113.85 -22.74C114.49 -22.72 115 -22.69 115.4 -22.63C115.8 -22.58 116.11 -22.46 116.32 -22.27C116.53 -22.06 116.67 -21.76 116.74 -21.38C116.82 -21.01 116.85 -20.49 116.85 -19.84L116.85 -4.58C116.85 -3.86 116.82 -3.3 116.74 -2.87C116.67 -2.45 116.53 -2.13 116.32 -1.9C116.11 -1.66 115.8 -1.51 115.4 -1.42C115 -1.34 114.49 -1.3 113.85 -1.3L113.85 -0.19C114.89 -0.21 116.15 -0.23 117.64 -0.25C119.14 -0.27 120.69 -0.28 122.29 -0.28C123.89 -0.28 125.44 -0.27 126.93 -0.25C128.43 -0.23 129.68 -0.21 130.69 -0.19Z M150.49 -0.19L151.85 -5.69L150.56 -5.69C150.33 -4.8 150.07 -4.09 149.8 -3.55C149.53 -3.02 149.2 -2.59 148.82 -2.27C148.42 -1.98 147.93 -1.78 147.35 -1.69C146.77 -1.6 146.06 -1.55 145.22 -1.55C144.04 -1.55 143.08 -1.57 142.33 -1.63C141.58 -1.68 141.01 -1.81 140.61 -2.02C140.19 -2.23 139.9 -2.54 139.75 -2.94C139.61 -3.34 139.53 -3.89 139.53 -4.58L139.53 -19.84C139.53 -20.49 139.57 -21.01 139.64 -21.38C139.72 -21.76 139.86 -22.05 140.07 -22.24C140.3 -22.45 140.62 -22.58 141.02 -22.63C141.42 -22.68 141.94 -22.72 142.6 -22.74L142.6 -23.94C142.16 -23.9 141.51 -23.87 140.67 -23.86C139.83 -23.85 138.94 -23.85 138.02 -23.85C137.11 -23.85 136.25 -23.85 135.44 -23.86C134.63 -23.87 134.04 -23.9 133.66 -23.94L133.66 -22.74C134.29 -22.72 134.81 -22.69 135.21 -22.63C135.61 -22.58 135.91 -22.46 136.12 -22.27C136.33 -22.06 136.48 -21.76 136.55 -21.38C136.62 -21.01 136.66 -20.49 136.66 -19.84L136.66 -4.58C136.66 -3.86 136.62 -3.3 136.55 -2.87C136.48 -2.45 136.33 -2.13 136.12 -1.9C135.91 -1.66 135.61 -1.51 135.21 -1.42C134.81 -1.34 134.29 -1.3 133.66 -1.3L133.66 -0.19C134.69 -0.21 135.95 -0.23 137.45 -0.25C138.94 -0.27 140.49 -0.28 142.09 -0.28C143.69 -0.28 145.24 -0.27 146.74 -0.25C148.23 -0.23 149.48 -0.21 150.49 -0.19Z M174.59 -17.5L174.25 -22.68C173.13 -23.12 171.92 -23.53 170.6 -23.9C169.28 -24.26 167.96 -24.45 166.64 -24.45C165.03 -24.45 163.49 -24.15 161.99 -23.55C160.5 -22.95 159.16 -22.11 157.98 -21.04C156.82 -19.96 155.89 -18.69 155.19 -17.21C154.48 -15.74 154.13 -14.13 154.13 -12.38C154.13 -10.44 154.43 -8.7 155.04 -7.14C155.65 -5.58 156.52 -4.24 157.63 -3.13C158.75 -2.01 160.08 -1.15 161.61 -0.55C163.15 0.05 164.86 0.35 166.73 0.35C167.28 0.35 167.89 0.31 168.56 0.22C169.24 0.14 169.91 0.01 170.58 -0.16C171.24 -0.31 171.85 -0.48 172.42 -0.69C172.98 -0.91 173.45 -1.13 173.81 -1.36L174.69 -6.76L173.39 -6.76C173.08 -5.1 172.42 -3.72 171.4 -2.64C170.39 -1.55 169.04 -1.01 167.33 -1.01C165.94 -1.01 164.63 -1.28 163.4 -1.83C162.17 -2.38 161.1 -3.15 160.19 -4.14C159.29 -5.15 158.57 -6.36 158.04 -7.77C157.52 -9.18 157.25 -10.75 157.25 -12.48C157.25 -14.03 157.5 -15.46 157.98 -16.76C158.46 -18.05 159.13 -19.16 159.97 -20.09C160.83 -21.02 161.84 -21.74 163 -22.25C164.16 -22.77 165.42 -23.03 166.79 -23.03C168.71 -23.03 170.21 -22.59 171.31 -21.72C172.4 -20.84 173.11 -19.44 173.43 -17.5Z"></path></g><g id="SvgjsG4253" class="text" transform="translate(276.1914580737355, 88.5274674560077) scale(1)" light-content="false" fill="#d04602"><path d="M-155.19 -10.65L-155.18 -10.01L-153.93 -10.01L-153.77 -9.82L-153.77 -1.33C-153.77 -1.09 -153.8 -0.92 -153.84 -0.8C-153.89 -0.68 -154.09 -0.62 -154.44 -0.62L-154.92 -0.62L-154.92 0L-151.57 0L-151.57 -0.62L-151.84 -0.62C-152.36 -0.62 -152.69 -0.66 -152.82 -0.73C-152.95 -0.8 -153.02 -1.01 -153.02 -1.36L-153.1 -8.96L-146.14 -0.02C-146.11 0.02 -146.09 0.06 -146.06 0.1C-146.03 0.14 -146.01 0.17 -145.99 0.18C-145.98 0.2 -145.97 0.21 -145.95 0.24C-145.93 0.26 -145.88 0.27 -145.79 0.27L-145.57 0.27C-145.5 0.27 -145.46 0.25 -145.44 0.2C-145.43 0.15 -145.42 0.04 -145.42 -0.11L-145.42 -9.31C-145.42 -9.62 -145.34 -9.82 -145.18 -9.92C-145.09 -9.98 -144.87 -10.01 -144.54 -10.01L-144.17 -10.01L-144.17 -10.65L-147.58 -10.65L-147.61 -10.01L-147.05 -10.01C-146.67 -10.01 -146.44 -9.98 -146.35 -9.93C-146.23 -9.85 -146.17 -9.69 -146.17 -9.44L-146.17 -2.2L-152.72 -10.65Z M-140.7 -3.61L-136.69 -4.09C-136.65 -4.09 -136.59 -4.11 -136.53 -4.15C-136.47 -4.19 -136.44 -4.25 -136.44 -4.33C-136.44 -4.6 -136.58 -4.92 -136.88 -5.29C-137.45 -6.01 -138.19 -6.37 -139.09 -6.37C-139.89 -6.37 -140.56 -6.06 -141.1 -5.43C-141.64 -4.79 -141.92 -3.95 -141.92 -2.92C-141.92 -2 -141.64 -1.24 -141.09 -0.64C-140.57 -0.08 -139.87 0.21 -138.99 0.21C-138.35 0.21 -137.76 0.04 -137.22 -0.29C-137 -0.43 -136.8 -0.57 -136.62 -0.73C-136.44 -0.88 -136.31 -1.02 -136.22 -1.15C-136.13 -1.28 -136.09 -1.39 -136.09 -1.49C-136.09 -1.58 -136.14 -1.63 -136.23 -1.63C-136.28 -1.63 -136.45 -1.54 -136.74 -1.36C-136.86 -1.29 -136.99 -1.22 -137.14 -1.14C-137.28 -1.07 -137.46 -1.01 -137.68 -0.96C-137.89 -0.9 -138.15 -0.88 -138.43 -0.88C-138.72 -0.88 -139 -0.93 -139.29 -1.04C-140.24 -1.42 -140.72 -2.2 -140.72 -3.38ZM-140.67 -4.17C-140.58 -4.68 -140.41 -5.08 -140.14 -5.38C-139.88 -5.68 -139.61 -5.83 -139.32 -5.83C-139.04 -5.83 -138.8 -5.74 -138.6 -5.57C-138.52 -5.5 -138.4 -5.36 -138.25 -5.17C-138.1 -4.97 -137.99 -4.76 -137.92 -4.52Z M-133.54 -5.75C-133.42 -5.75 -133.34 -5.72 -133.3 -5.67C-133.26 -5.62 -133.23 -5.51 -133.23 -5.35L-133.23 -2.2C-133.23 -1.82 -133.2 -1.48 -133.14 -1.19C-133.1 -1.02 -133.06 -0.87 -133 -0.73C-132.94 -0.59 -132.86 -0.46 -132.76 -0.34C-132.67 -0.22 -132.55 -0.11 -132.43 -0.03C-132.3 0.05 -132.14 0.12 -131.96 0.17C-131.78 0.21 -131.58 0.24 -131.37 0.24C-131.15 0.24 -130.94 0.2 -130.72 0.12C-130.17 -0.06 -129.7 -0.37 -129.31 -0.8C-129.25 -0.42 -129.21 -0.04 -129.2 0.34C-129.08 0.3 -128.82 0.23 -128.41 0.12C-128 0 -127.61 -0.1 -127.23 -0.18L-127.23 -0.69C-127.63 -0.57 -127.87 -0.51 -127.96 -0.51C-128.04 -0.51 -128.1 -0.55 -128.16 -0.62C-128.21 -0.68 -128.24 -1.07 -128.24 -1.77L-128.24 -6.42C-129.1 -6.28 -129.83 -6.19 -130.42 -6.15L-130.38 -5.65C-130.36 -5.67 -130.22 -5.69 -129.95 -5.72C-129.83 -5.73 -129.73 -5.73 -129.64 -5.73C-129.55 -5.73 -129.48 -5.7 -129.43 -5.64C-129.38 -5.58 -129.36 -5.46 -129.36 -5.26L-129.36 -1.36C-129.66 -0.95 -130.14 -0.75 -130.79 -0.75C-131.24 -0.75 -131.57 -0.86 -131.78 -1.07C-132.01 -1.29 -132.12 -1.75 -132.12 -2.43L-132.12 -6.42C-132.6 -6.34 -133.24 -6.25 -134.06 -6.18L-134.06 -5.7Z M-124 -5.06L-124 -1.17C-124 -0.94 -124.01 -0.79 -124.04 -0.72C-124.06 -0.66 -124.09 -0.61 -124.13 -0.57C-124.17 -0.53 -124.36 -0.51 -124.7 -0.51L-125 -0.51L-125 0L-121.19 0L-121.19 -0.51L-121.87 -0.51C-122.34 -0.51 -122.62 -0.55 -122.72 -0.62C-122.83 -0.68 -122.88 -0.86 -122.88 -1.17L-122.88 -3.86C-122.88 -4.06 -122.81 -4.25 -122.66 -4.43C-122.51 -4.61 -122.33 -4.75 -122.13 -4.85C-121.93 -4.95 -121.74 -5 -121.57 -5C-121.31 -5 -121.19 -4.88 -121.19 -4.63L-121.19 -4.43L-120.93 -4.33L-120.33 -5.91C-120.37 -5.98 -120.41 -6.02 -120.44 -6.05C-120.64 -6.22 -120.89 -6.31 -121.2 -6.31C-121.49 -6.31 -121.77 -6.17 -122.04 -5.9C-122.16 -5.79 -122.28 -5.66 -122.39 -5.51C-122.5 -5.37 -122.61 -5.2 -122.73 -5C-122.85 -4.8 -122.91 -4.69 -122.91 -4.68L-122.91 -6.48C-123.31 -6.38 -123.63 -6.31 -123.86 -6.25C-124.08 -6.2 -124.27 -6.15 -124.41 -6.12C-124.56 -6.09 -124.65 -6.07 -124.7 -6.06C-124.75 -6.05 -124.83 -6.03 -124.94 -6.01C-125.05 -5.99 -125.15 -5.98 -125.24 -5.96L-125.2 -5.46C-124.59 -5.58 -124.25 -5.64 -124.18 -5.64C-124.06 -5.64 -124 -5.45 -124 -5.06Z M-118.21 -3.12C-118.21 -2.42 -118.04 -1.79 -117.71 -1.24C-117.11 -0.25 -116.22 0.24 -115.02 0.24C-114 0.24 -113.19 -0.07 -112.58 -0.68C-111.99 -1.28 -111.69 -2.03 -111.69 -2.94C-111.69 -4 -112 -4.84 -112.61 -5.48C-113.19 -6.1 -114 -6.4 -115.05 -6.4C-115.9 -6.4 -116.58 -6.18 -117.11 -5.72C-117.35 -5.52 -117.56 -5.27 -117.73 -4.99C-117.89 -4.71 -118.02 -4.41 -118.1 -4.09C-118.17 -3.78 -118.21 -3.46 -118.21 -3.12ZM-116.93 -3.56C-116.93 -4.29 -116.76 -4.85 -116.41 -5.27C-116.08 -5.66 -115.67 -5.86 -115.19 -5.86C-114.6 -5.86 -114.09 -5.62 -113.68 -5.15C-113.48 -4.92 -113.32 -4.62 -113.21 -4.25C-113.09 -3.87 -113.03 -3.43 -113.03 -2.9C-113.03 -2.38 -113.12 -1.91 -113.28 -1.5C-113.37 -1.27 -113.48 -1.08 -113.62 -0.92C-113.75 -0.75 -113.92 -0.62 -114.12 -0.53C-114.33 -0.43 -114.55 -0.38 -114.81 -0.38C-115.06 -0.38 -115.3 -0.44 -115.53 -0.56C-115.76 -0.68 -115.96 -0.85 -116.12 -1.05C-116.29 -1.26 -116.44 -1.5 -116.56 -1.76C-116.68 -2.03 -116.78 -2.31 -116.84 -2.61C-116.9 -2.91 -116.93 -3.23 -116.93 -3.56Z M-109.74 -5.49L-108.57 -5.49L-108.57 -0.94C-108.57 -0.75 -108.61 -0.63 -108.69 -0.58C-108.77 -0.54 -108.96 -0.51 -109.25 -0.51L-109.58 -0.51L-109.56 0L-106.24 0L-106.23 -0.51L-106.45 -0.51C-106.73 -0.51 -106.92 -0.52 -107.02 -0.53C-107.1 -0.53 -107.16 -0.54 -107.2 -0.55C-107.24 -0.55 -107.28 -0.57 -107.32 -0.59C-107.36 -0.61 -107.39 -0.64 -107.42 -0.67C-107.45 -0.71 -107.46 -0.81 -107.46 -0.99L-107.46 -5.49L-105.85 -5.49L-105.67 -6.26L-107.46 -6.26L-107.46 -8.37C-107.46 -8.58 -107.45 -8.82 -107.42 -9.06C-107.4 -9.24 -107.38 -9.4 -107.35 -9.56C-107.32 -9.71 -107.27 -9.88 -107.21 -10.05C-107.15 -10.22 -107.08 -10.37 -106.99 -10.49C-106.91 -10.61 -106.81 -10.71 -106.68 -10.79C-106.56 -10.87 -106.4 -10.91 -106.22 -10.91C-106.03 -10.91 -105.87 -10.8 -105.74 -10.57C-105.68 -10.48 -105.61 -10.35 -105.53 -10.19C-105.45 -10.03 -105.37 -9.95 -105.29 -9.95C-105.14 -9.95 -104.96 -10.09 -104.76 -10.36C-104.56 -10.64 -104.46 -10.85 -104.46 -11.01C-104.46 -11.17 -104.57 -11.3 -104.81 -11.41C-105.05 -11.51 -105.38 -11.56 -105.81 -11.56C-106.25 -11.56 -106.65 -11.45 -107.02 -11.22C-107.4 -10.99 -107.69 -10.73 -107.9 -10.44C-108 -10.3 -108.09 -10.16 -108.17 -10.02C-108.25 -9.88 -108.31 -9.73 -108.36 -9.58C-108.41 -9.42 -108.46 -9.24 -108.5 -9.04C-108.55 -8.84 -108.57 -8.49 -108.57 -7.98L-108.57 -6.26L-109.55 -6.26Z M-102.82 -3.61L-98.81 -4.09C-98.76 -4.09 -98.71 -4.11 -98.65 -4.15C-98.59 -4.19 -98.55 -4.25 -98.55 -4.33C-98.55 -4.6 -98.7 -4.92 -98.99 -5.29C-99.57 -6.01 -100.31 -6.37 -101.21 -6.37C-102.01 -6.37 -102.68 -6.06 -103.21 -5.43C-103.76 -4.79 -104.03 -3.95 -104.03 -2.92C-104.03 -2 -103.76 -1.24 -103.21 -0.64C-102.68 -0.08 -101.98 0.21 -101.11 0.21C-100.46 0.21 -99.87 0.04 -99.34 -0.29C-99.11 -0.43 -98.91 -0.57 -98.73 -0.73C-98.56 -0.88 -98.42 -1.02 -98.34 -1.15C-98.25 -1.28 -98.2 -1.39 -98.2 -1.49C-98.2 -1.58 -98.25 -1.63 -98.35 -1.63C-98.4 -1.63 -98.57 -1.54 -98.85 -1.36C-98.97 -1.29 -99.1 -1.22 -99.25 -1.14C-99.4 -1.07 -99.58 -1.01 -99.79 -0.96C-100.01 -0.9 -100.26 -0.88 -100.55 -0.88C-100.83 -0.88 -101.12 -0.93 -101.4 -1.04C-102.36 -1.42 -102.83 -2.2 -102.83 -3.38ZM-102.78 -4.17C-102.7 -4.68 -102.52 -5.08 -102.26 -5.38C-101.99 -5.68 -101.72 -5.83 -101.44 -5.83C-101.16 -5.83 -100.92 -5.74 -100.72 -5.57C-100.64 -5.5 -100.52 -5.36 -100.37 -5.17C-100.22 -4.97 -100.11 -4.76 -100.04 -4.52Z M-94.78 -3.61L-90.77 -4.09C-90.72 -4.09 -90.67 -4.11 -90.61 -4.15C-90.55 -4.19 -90.52 -4.25 -90.52 -4.33C-90.52 -4.6 -90.66 -4.92 -90.95 -5.29C-91.53 -6.01 -92.27 -6.37 -93.17 -6.37C-93.97 -6.37 -94.64 -6.06 -95.17 -5.43C-95.72 -4.79 -95.99 -3.95 -95.99 -2.92C-95.99 -2 -95.72 -1.24 -95.17 -0.64C-94.64 -0.08 -93.94 0.21 -93.07 0.21C-92.42 0.21 -91.83 0.04 -91.3 -0.29C-91.07 -0.43 -90.87 -0.57 -90.69 -0.73C-90.52 -0.88 -90.39 -1.02 -90.3 -1.15C-90.21 -1.28 -90.16 -1.39 -90.16 -1.49C-90.16 -1.58 -90.21 -1.63 -90.31 -1.63C-90.36 -1.63 -90.53 -1.54 -90.82 -1.36C-90.93 -1.29 -91.06 -1.22 -91.21 -1.14C-91.36 -1.07 -91.54 -1.01 -91.75 -0.96C-91.97 -0.9 -92.22 -0.88 -92.51 -0.88C-92.79 -0.88 -93.08 -0.93 -93.37 -1.04C-94.32 -1.42 -94.79 -2.2 -94.79 -3.38ZM-94.75 -4.17C-94.66 -4.68 -94.48 -5.08 -94.22 -5.38C-93.95 -5.68 -93.68 -5.83 -93.4 -5.83C-93.12 -5.83 -92.88 -5.74 -92.68 -5.57C-92.6 -5.5 -92.48 -5.36 -92.33 -5.17C-92.18 -4.97 -92.07 -4.76 -92 -4.52Z M-82.73 0.41C-82.38 0.31 -81.96 0.18 -81.48 0.03C-80.99 -0.12 -80.64 -0.23 -80.43 -0.29L-80.43 -0.72C-80.57 -0.68 -80.72 -0.63 -80.88 -0.58C-81.04 -0.53 -81.16 -0.49 -81.24 -0.47C-81.33 -0.45 -81.4 -0.43 -81.47 -0.43C-81.54 -0.43 -81.59 -0.48 -81.61 -0.57C-81.63 -0.66 -81.65 -0.84 -81.65 -1.12L-81.65 -11.67C-82.74 -11.39 -83.55 -11.2 -84.07 -11.1L-84.04 -10.6C-83.43 -10.74 -83.08 -10.81 -82.99 -10.81C-82.84 -10.81 -82.76 -10.66 -82.76 -10.36L-82.76 -5.61C-83.38 -6.07 -84.08 -6.31 -84.85 -6.31C-85.62 -6.31 -86.32 -5.99 -86.96 -5.36C-87.26 -5.06 -87.5 -4.71 -87.68 -4.28C-87.86 -3.86 -87.95 -3.42 -87.95 -2.96C-87.95 -2.02 -87.67 -1.26 -87.11 -0.67C-86.56 -0.1 -85.89 0.19 -85.11 0.19C-84.18 0.19 -83.39 -0.21 -82.73 -1.01C-82.72 -0.97 -82.71 -0.89 -82.71 -0.75ZM-86.63 -4.43C-86.53 -4.72 -86.39 -4.97 -86.21 -5.17C-86.04 -5.37 -85.83 -5.53 -85.59 -5.64C-85.35 -5.76 -85.1 -5.81 -84.84 -5.81C-84.58 -5.81 -84.34 -5.78 -84.11 -5.7C-83.51 -5.51 -83.06 -5.21 -82.76 -4.79L-82.76 -1.36C-82.89 -1.22 -83.12 -1.06 -83.45 -0.88C-83.65 -0.77 -83.92 -0.72 -84.28 -0.72C-85.05 -0.72 -85.66 -1 -86.12 -1.57C-86.33 -1.83 -86.5 -2.13 -86.61 -2.46C-86.73 -2.8 -86.79 -3.14 -86.79 -3.49C-86.79 -3.83 -86.74 -4.15 -86.63 -4.43Z M-77.63 -0.34C-77.63 -0.09 -77.57 0.03 -77.45 0.03C-77.37 0.03 -77.25 -0.03 -77.08 -0.15C-76.92 -0.27 -76.8 -0.34 -76.73 -0.34C-76.66 -0.34 -76.34 -0.23 -75.77 -0.02C-75.47 0.09 -75.08 0.14 -74.58 0.14C-73.75 0.14 -73.05 -0.1 -72.5 -0.6C-71.69 -1.33 -71.29 -2.25 -71.29 -3.38C-71.29 -4.19 -71.52 -4.88 -72 -5.45C-72.23 -5.73 -72.53 -5.95 -72.91 -6.12C-73.29 -6.29 -73.7 -6.37 -74.12 -6.37C-74.54 -6.37 -74.93 -6.3 -75.27 -6.15C-75.41 -6.09 -75.55 -6.02 -75.69 -5.93C-75.84 -5.84 -75.95 -5.77 -76.03 -5.71C-76.11 -5.64 -76.2 -5.57 -76.29 -5.5C-76.39 -5.42 -76.44 -5.38 -76.46 -5.36L-76.46 -11.54C-77.63 -11.31 -78.4 -11.16 -78.76 -11.1L-78.71 -10.6C-78.19 -10.72 -77.88 -10.78 -77.8 -10.78C-77.65 -10.78 -77.58 -10.62 -77.58 -10.3L-77.58 -2.48ZM-74.62 -5.51C-74.43 -5.51 -74.23 -5.48 -74.01 -5.41C-73.86 -5.37 -73.72 -5.31 -73.59 -5.24C-73.45 -5.17 -73.31 -5.06 -73.17 -4.92C-73.02 -4.79 -72.9 -4.63 -72.8 -4.44C-72.69 -4.26 -72.61 -4.03 -72.54 -3.75C-72.47 -3.47 -72.44 -3.1 -72.44 -2.66C-72.44 -2.21 -72.54 -1.81 -72.74 -1.45C-72.83 -1.29 -72.94 -1.15 -73.07 -1.03C-73.2 -0.9 -73.33 -0.8 -73.47 -0.73C-73.61 -0.66 -73.75 -0.6 -73.91 -0.55C-74.07 -0.5 -74.21 -0.47 -74.35 -0.46C-74.48 -0.44 -74.63 -0.43 -74.8 -0.43C-74.97 -0.43 -75.15 -0.46 -75.35 -0.5C-76.09 -0.68 -76.46 -1.03 -76.46 -1.56L-76.46 -4.92C-75.99 -5.31 -75.38 -5.51 -74.62 -5.51Z M-68.51 -3.96C-68.43 -3.96 -68.32 -4 -68.19 -4.08C-68.07 -4.16 -68 -4.25 -68 -4.34C-68 -4.44 -68.03 -4.6 -68.1 -4.82C-68.13 -4.92 -68.15 -5.01 -68.16 -5.08C-68.11 -5.19 -67.99 -5.3 -67.81 -5.4C-67.73 -5.45 -67.6 -5.49 -67.43 -5.52C-67.27 -5.56 -67.04 -5.58 -66.76 -5.58C-66.47 -5.58 -66.24 -5.5 -66.07 -5.36C-65.89 -5.2 -65.8 -4.9 -65.8 -4.44L-65.8 -3.48C-66.39 -3.48 -66.93 -3.37 -67.42 -3.14C-67.92 -2.92 -68.31 -2.62 -68.59 -2.25C-68.87 -1.87 -69.01 -1.47 -69.01 -1.05C-69.01 -0.63 -68.85 -0.31 -68.53 -0.11C-68.38 -0.01 -68.22 0.06 -68.06 0.11C-67.89 0.15 -67.68 0.18 -67.42 0.18C-67.16 0.18 -66.86 0.08 -66.51 -0.12C-66.17 -0.32 -65.88 -0.56 -65.67 -0.85C-65.44 -0.55 -65.26 -0.32 -65.12 -0.17C-65.01 -0.04 -64.84 0.11 -64.6 0.27C-64.58 0.27 -64.27 0.09 -63.7 -0.26C-63.57 -0.34 -63.5 -0.41 -63.5 -0.48C-63.5 -0.54 -63.55 -0.58 -63.64 -0.61C-63.99 -0.7 -64.24 -0.84 -64.41 -1.03C-64.59 -1.23 -64.68 -1.58 -64.68 -2.06L-64.68 -5.05C-64.68 -5.27 -64.72 -5.46 -64.79 -5.62C-65.01 -6.09 -65.44 -6.32 -66.09 -6.32C-67.22 -6.32 -68.03 -6.01 -68.51 -5.39C-68.76 -5.07 -68.88 -4.78 -68.88 -4.53C-68.88 -4.15 -68.76 -3.96 -68.51 -3.96ZM-67.89 -1.46C-67.89 -1.86 -67.71 -2.22 -67.35 -2.54C-66.96 -2.88 -66.45 -3.05 -65.8 -3.05L-65.8 -1.56C-65.8 -1.39 -65.84 -1.24 -65.93 -1.11C-65.98 -1.02 -66.05 -0.95 -66.13 -0.89C-66.21 -0.83 -66.32 -0.78 -66.46 -0.74C-66.6 -0.71 -66.79 -0.69 -67.05 -0.69C-67.3 -0.69 -67.51 -0.76 -67.66 -0.91C-67.82 -1.07 -67.89 -1.25 -67.89 -1.46Z M-61.43 -3.93C-61.51 -3.59 -61.55 -3.22 -61.55 -2.82C-61.55 -2.41 -61.49 -2.02 -61.37 -1.64C-60.98 -0.41 -60.04 0.21 -58.54 0.21C-57.91 0.21 -57.3 0.05 -56.72 -0.27C-56.48 -0.4 -56.28 -0.53 -56.13 -0.66C-55.97 -0.79 -55.89 -0.91 -55.89 -1C-55.89 -1.09 -55.94 -1.13 -56.02 -1.13C-56.06 -1.13 -56.14 -1.11 -56.24 -1.07C-56.34 -1.03 -56.46 -0.99 -56.59 -0.94C-56.72 -0.9 -56.92 -0.85 -57.18 -0.81C-57.45 -0.77 -57.78 -0.75 -58.17 -0.75C-58.56 -0.75 -58.94 -0.86 -59.32 -1.09C-59.53 -1.21 -59.72 -1.37 -59.87 -1.55C-60.03 -1.74 -60.16 -1.98 -60.26 -2.28C-60.36 -2.58 -60.41 -2.93 -60.41 -3.34C-60.41 -3.74 -60.35 -4.14 -60.23 -4.54C-60.16 -4.77 -60.07 -4.97 -59.96 -5.15C-59.85 -5.33 -59.7 -5.47 -59.52 -5.59C-59.33 -5.71 -59.12 -5.77 -58.89 -5.77C-58.65 -5.77 -58.39 -5.66 -58.12 -5.45C-58 -5.36 -57.89 -5.27 -57.78 -5.19C-57.67 -5.1 -57.56 -5.02 -57.45 -4.96C-57.33 -4.9 -57.23 -4.87 -57.13 -4.87C-57.02 -4.87 -56.85 -4.91 -56.6 -4.98C-56.49 -5.02 -56.38 -5.07 -56.3 -5.13C-56.21 -5.2 -56.16 -5.27 -56.16 -5.34C-56.16 -5.41 -56.22 -5.5 -56.34 -5.61C-56.89 -6.14 -57.64 -6.4 -58.61 -6.4C-59.36 -6.4 -59.98 -6.16 -60.48 -5.67C-60.71 -5.44 -60.9 -5.18 -61.07 -4.88C-61.23 -4.58 -61.35 -4.27 -61.43 -3.93Z M-53.78 -11.16L-53.75 -10.65C-53.37 -10.75 -53.14 -10.8 -53.04 -10.8C-52.95 -10.8 -52.89 -10.74 -52.86 -10.64C-52.83 -10.54 -52.82 -10.34 -52.82 -10.04L-52.82 -0.75C-52.82 -0.73 -52.83 -0.7 -52.83 -0.67C-52.84 -0.63 -52.85 -0.61 -52.86 -0.6C-52.87 -0.59 -52.89 -0.58 -52.91 -0.56C-52.94 -0.55 -52.97 -0.54 -53 -0.53C-53.03 -0.53 -53.07 -0.52 -53.13 -0.52C-53.19 -0.51 -53.27 -0.51 -53.37 -0.51L-53.73 -0.51L-53.73 0L-50.45 0L-50.47 -0.51L-50.9 -0.51C-51.27 -0.51 -51.5 -0.53 -51.59 -0.57C-51.69 -0.61 -51.73 -0.72 -51.73 -0.91L-51.73 -2.64L-51.18 -3.06L-48.68 0L-46.8 0L-46.78 -0.51L-47.21 -0.51C-47.3 -0.51 -47.37 -0.51 -47.42 -0.52C-47.47 -0.52 -47.51 -0.53 -47.54 -0.53C-47.58 -0.53 -47.61 -0.55 -47.64 -0.58C-47.67 -0.6 -47.7 -0.62 -47.71 -0.64C-47.73 -0.65 -47.76 -0.69 -47.81 -0.75C-47.86 -0.81 -47.9 -0.86 -47.93 -0.89L-50.31 -3.67L-48.05 -5.48C-47.86 -5.63 -47.71 -5.72 -47.59 -5.77C-47.48 -5.81 -47.33 -5.83 -47.17 -5.83L-46.93 -5.83L-46.91 -6.26L-49.48 -6.26L-49.48 -5.83L-49 -5.83C-48.78 -5.83 -48.67 -5.79 -48.67 -5.72C-48.67 -5.68 -48.71 -5.63 -48.78 -5.58L-51.7 -3.19L-51.7 -11.58C-52.02 -11.51 -52.71 -11.37 -53.78 -11.16Z M-44.51 2.11C-44.51 2.26 -44.44 2.33 -44.3 2.33C-44.17 2.33 -43.99 2.29 -43.77 2.21C-43.55 2.14 -43.35 2.01 -43.16 1.83C-42.97 1.65 -42.8 1.38 -42.66 1.03C-42.52 0.68 -42.45 0.32 -42.45 -0.05C-42.45 -0.42 -42.55 -0.71 -42.75 -0.92C-42.82 -1 -42.91 -1.07 -43.01 -1.12C-43.1 -1.17 -43.18 -1.2 -43.23 -1.21C-43.28 -1.22 -43.33 -1.23 -43.36 -1.23C-43.39 -1.23 -43.47 -1.18 -43.59 -1.1C-43.7 -1.01 -43.81 -0.91 -43.92 -0.78C-44.02 -0.66 -44.08 -0.56 -44.08 -0.48C-44.08 -0.4 -44.02 -0.32 -43.9 -0.27C-43.85 -0.24 -43.79 -0.21 -43.73 -0.16C-43.67 -0.12 -43.6 -0.06 -43.52 0.03C-43.43 0.11 -43.39 0.27 -43.39 0.51C-43.39 0.87 -43.49 1.16 -43.68 1.38C-43.76 1.47 -43.85 1.56 -43.95 1.63C-44.05 1.71 -44.16 1.79 -44.3 1.87C-44.44 1.95 -44.51 2.03 -44.51 2.11Z M-35.21 0L-30.97 0L-30.97 -0.62L-31.77 -0.62C-32.26 -0.62 -32.58 -0.65 -32.72 -0.7C-32.81 -0.74 -32.85 -0.86 -32.85 -1.09L-32.85 -4.53C-32.85 -4.53 -32.8 -4.52 -32.72 -4.5C-31.99 -4.3 -31.28 -4.2 -30.6 -4.2C-29.71 -4.2 -28.99 -4.41 -28.42 -4.82C-27.63 -5.4 -27.23 -6.16 -27.23 -7.11C-27.23 -7.71 -27.35 -8.26 -27.6 -8.74C-27.85 -9.22 -28.14 -9.6 -28.49 -9.89C-28.84 -10.17 -29.27 -10.38 -29.77 -10.52C-30.07 -10.61 -30.77 -10.65 -31.86 -10.65L-35.15 -10.65L-35.17 -10.01L-34.75 -10.01C-34.5 -10.01 -34.33 -9.98 -34.24 -9.91C-34.18 -9.86 -34.15 -9.7 -34.15 -9.44L-34.15 -1.09C-34.15 -0.94 -34.15 -0.84 -34.17 -0.79C-34.19 -0.74 -34.21 -0.71 -34.26 -0.67C-34.3 -0.64 -34.46 -0.62 -34.72 -0.62L-35.21 -0.62ZM-32.85 -5.01L-32.85 -9.28C-32.85 -9.61 -32.81 -9.82 -32.73 -9.92C-32.68 -9.98 -32.56 -10.01 -32.37 -10.01C-31.55 -10.01 -30.84 -9.85 -30.24 -9.54C-29.23 -9.02 -28.73 -8.22 -28.73 -7.14C-28.73 -6.35 -28.96 -5.74 -29.41 -5.33C-29.86 -4.92 -30.48 -4.71 -31.26 -4.71C-32.05 -4.71 -32.58 -4.81 -32.85 -5.01Z M-24.39 0.21C-24.39 0.07 -24.35 0 -24.25 0C-24.23 0 -24.06 0.03 -23.73 0.1C-23.39 0.17 -23.05 0.21 -22.69 0.21C-22.01 0.21 -21.49 0.02 -21.13 -0.34C-20.96 -0.51 -20.83 -0.7 -20.75 -0.92C-20.66 -1.13 -20.61 -1.37 -20.61 -1.63C-20.61 -1.89 -20.68 -2.13 -20.81 -2.34C-20.88 -2.45 -20.98 -2.58 -21.1 -2.72C-21.22 -2.87 -21.53 -3.1 -22.02 -3.43L-22.73 -3.91C-22.86 -4 -22.95 -4.06 -23.01 -4.11C-23.03 -4.12 -23.07 -4.15 -23.13 -4.2C-23.2 -4.25 -23.24 -4.28 -23.25 -4.29C-23.27 -4.31 -23.3 -4.34 -23.35 -4.39C-23.4 -4.43 -23.43 -4.47 -23.45 -4.49C-23.46 -4.52 -23.49 -4.57 -23.54 -4.64C-23.59 -4.71 -23.62 -4.82 -23.62 -4.98C-23.62 -5.19 -23.52 -5.37 -23.33 -5.52C-23.14 -5.68 -22.95 -5.75 -22.74 -5.75C-22.53 -5.75 -22.34 -5.73 -22.17 -5.69C-21.7 -5.59 -21.38 -5.44 -21.2 -5.22L-21.19 -4.09L-20.68 -4.09L-20.68 -6.5L-21.19 -6.51C-21.19 -6.2 -21.23 -6.04 -21.31 -6.04C-21.36 -6.04 -21.44 -6.06 -21.56 -6.11C-21.69 -6.16 -21.85 -6.2 -22.06 -6.25C-22.26 -6.3 -22.52 -6.32 -22.81 -6.32C-23.11 -6.32 -23.41 -6.25 -23.71 -6.11C-24.01 -5.96 -24.24 -5.76 -24.41 -5.52C-24.58 -5.27 -24.67 -5.01 -24.67 -4.73C-24.67 -4.07 -24.27 -3.48 -23.47 -2.96L-22.89 -2.57C-22.62 -2.39 -22.41 -2.24 -22.25 -2.11C-22.15 -2.02 -22.07 -1.93 -22.01 -1.85C-21.95 -1.77 -21.9 -1.68 -21.86 -1.58C-21.82 -1.47 -21.79 -1.33 -21.79 -1.17C-21.79 -1 -21.87 -0.82 -22.01 -0.64C-22.09 -0.54 -22.18 -0.47 -22.31 -0.42C-22.43 -0.36 -22.57 -0.34 -22.73 -0.34C-22.89 -0.34 -23.14 -0.38 -23.48 -0.46C-23.83 -0.54 -24.16 -0.71 -24.48 -0.96L-24.64 -2.28L-25.13 -2.25L-24.84 0.4L-24.38 0.37Z M-17.78 2.75C-17.96 2.75 -18.1 2.8 -18.22 2.91C-18.33 3.02 -18.38 3.19 -18.38 3.4C-18.38 3.62 -18.33 3.8 -18.21 3.93C-18.09 4.07 -17.94 4.14 -17.75 4.14C-17.56 4.14 -17.38 4.1 -17.24 4.04C-16.69 3.81 -15.93 2.61 -14.95 0.46L-12.52 -4.9C-12.46 -5.04 -12.4 -5.18 -12.34 -5.31C-12.33 -5.35 -12.31 -5.39 -12.28 -5.45C-12.25 -5.51 -12.22 -5.55 -12.21 -5.57C-12.19 -5.58 -12.17 -5.61 -12.14 -5.64C-12.11 -5.68 -12.08 -5.69 -12.06 -5.7C-12.03 -5.71 -12 -5.71 -11.95 -5.73C-11.9 -5.74 -11.81 -5.75 -11.66 -5.75L-11.28 -5.75L-11.28 -6.26L-13.88 -6.26L-13.88 -5.75L-13.66 -5.75C-13.39 -5.75 -13.2 -5.74 -13.1 -5.71C-13.01 -5.68 -12.96 -5.61 -12.96 -5.51C-12.96 -5.4 -13.13 -4.96 -13.48 -4.18L-14.49 -1.92L-15.84 -4.97C-15.86 -4.99 -15.88 -5.04 -15.91 -5.11C-15.94 -5.18 -15.96 -5.23 -15.97 -5.27C-15.99 -5.3 -16 -5.35 -16.01 -5.4C-16.03 -5.45 -16.04 -5.51 -16.04 -5.57C-16.04 -5.64 -15.99 -5.68 -15.91 -5.71C-15.83 -5.74 -15.68 -5.75 -15.48 -5.75L-15.21 -5.75L-15.17 -6.26L-18.22 -6.26L-18.19 -5.75L-17.95 -5.75C-17.89 -5.75 -17.83 -5.75 -17.76 -5.74C-17.69 -5.72 -17.65 -5.72 -17.62 -5.71C-17.59 -5.71 -17.55 -5.69 -17.51 -5.66C-17.47 -5.63 -17.44 -5.6 -17.42 -5.59C-17.41 -5.57 -17.39 -5.54 -17.35 -5.48C-17.31 -5.41 -17.28 -5.37 -17.27 -5.33C-17.26 -5.3 -17.23 -5.23 -17.18 -5.13C-17.14 -5.03 -17.1 -4.95 -17.07 -4.89L-15.08 -0.59L-15.56 0.34C-16.02 1.24 -16.39 1.87 -16.66 2.24C-16.93 2.6 -17.15 2.78 -17.31 2.78Z M-9.38 -3.93C-9.46 -3.59 -9.5 -3.22 -9.5 -2.82C-9.5 -2.41 -9.44 -2.02 -9.32 -1.64C-8.93 -0.41 -7.99 0.21 -6.5 0.21C-5.86 0.21 -5.25 0.05 -4.67 -0.27C-4.43 -0.4 -4.23 -0.53 -4.08 -0.66C-3.92 -0.79 -3.84 -0.91 -3.84 -1C-3.84 -1.09 -3.89 -1.13 -3.97 -1.13C-4.01 -1.13 -4.09 -1.11 -4.19 -1.07C-4.3 -1.03 -4.41 -0.99 -4.54 -0.94C-4.67 -0.9 -4.87 -0.85 -5.13 -0.81C-5.4 -0.77 -5.73 -0.75 -6.12 -0.75C-6.51 -0.75 -6.89 -0.86 -7.27 -1.09C-7.48 -1.21 -7.67 -1.37 -7.82 -1.55C-7.98 -1.74 -8.11 -1.98 -8.21 -2.28C-8.31 -2.58 -8.36 -2.93 -8.36 -3.34C-8.36 -3.74 -8.3 -4.14 -8.18 -4.54C-8.11 -4.77 -8.02 -4.97 -7.91 -5.15C-7.8 -5.33 -7.65 -5.47 -7.47 -5.59C-7.29 -5.71 -7.08 -5.77 -6.84 -5.77C-6.6 -5.77 -6.34 -5.66 -6.07 -5.45C-5.95 -5.36 -5.84 -5.27 -5.73 -5.19C-5.62 -5.1 -5.51 -5.02 -5.4 -4.96C-5.28 -4.9 -5.18 -4.87 -5.08 -4.87C-4.97 -4.87 -4.8 -4.91 -4.55 -4.98C-4.44 -5.02 -4.33 -5.07 -4.25 -5.13C-4.16 -5.2 -4.11 -5.27 -4.11 -5.34C-4.11 -5.41 -4.17 -5.5 -4.29 -5.61C-4.84 -6.14 -5.59 -6.4 -6.56 -6.4C-7.31 -6.4 -7.93 -6.16 -8.43 -5.67C-8.66 -5.44 -8.85 -5.18 -9.02 -4.88C-9.18 -4.58 -9.3 -4.27 -9.38 -3.93Z M1.99 -5.42C2.21 -5.42 2.41 -5.36 2.58 -5.26C2.91 -5.06 3.08 -4.71 3.08 -4.2L3.08 -0.96C3.08 -0.76 3.03 -0.64 2.94 -0.59C2.84 -0.54 2.63 -0.51 2.31 -0.51L2.05 -0.51L2.07 0L5.14 0L5.14 -0.51L4.88 -0.51C4.64 -0.51 4.48 -0.52 4.41 -0.54C4.35 -0.55 4.3 -0.57 4.26 -0.6C4.22 -0.63 4.2 -0.75 4.2 -0.97L4.2 -3.74C4.2 -4.08 4.19 -4.36 4.18 -4.57C4.17 -4.73 4.15 -4.86 4.13 -4.97C4.11 -5.07 4.09 -5.19 4.05 -5.33C4.01 -5.46 3.97 -5.57 3.92 -5.66C3.87 -5.74 3.81 -5.83 3.73 -5.92C3.65 -6.01 3.56 -6.08 3.46 -6.13C3.36 -6.18 3.25 -6.22 3.11 -6.26C2.98 -6.29 2.81 -6.31 2.62 -6.31C2.43 -6.31 2.2 -6.26 1.93 -6.18C1.82 -6.14 1.7 -6.09 1.58 -6.02C1.45 -5.95 1.32 -5.88 1.18 -5.8C1.04 -5.72 0.76 -5.49 0.32 -5.13L0.32 -11.59C-0.74 -11.43 -1.42 -11.34 -1.71 -11.31L-1.71 -10.75C-1.33 -10.81 -1.1 -10.84 -1.03 -10.84C-0.96 -10.84 -0.9 -10.81 -0.86 -10.74C-0.82 -10.67 -0.8 -10.55 -0.8 -10.36L-0.8 -0.88C-0.8 -0.75 -0.84 -0.65 -0.93 -0.57C-0.97 -0.53 -1.17 -0.51 -1.54 -0.51L-1.71 -0.51L-1.7 0L1.4 0L1.42 -0.51L1.13 -0.51C0.79 -0.51 0.57 -0.53 0.47 -0.57C0.37 -0.61 0.32 -0.72 0.32 -0.88L0.32 -4.65C0.93 -5.16 1.49 -5.42 1.99 -5.42Z M7.09 -3.12C7.09 -2.42 7.26 -1.79 7.6 -1.24C8.19 -0.25 9.09 0.24 10.29 0.24C11.3 0.24 12.11 -0.07 12.72 -0.68C13.31 -1.28 13.61 -2.03 13.61 -2.94C13.61 -4 13.31 -4.84 12.7 -5.48C12.12 -6.1 11.3 -6.4 10.25 -6.4C9.41 -6.4 8.72 -6.18 8.19 -5.72C7.95 -5.52 7.74 -5.27 7.58 -4.99C7.41 -4.71 7.29 -4.41 7.21 -4.09C7.13 -3.78 7.09 -3.46 7.09 -3.12ZM8.37 -3.56C8.37 -4.29 8.54 -4.85 8.89 -5.27C9.23 -5.66 9.64 -5.86 10.11 -5.86C10.71 -5.86 11.21 -5.62 11.62 -5.15C11.82 -4.92 11.98 -4.62 12.1 -4.25C12.21 -3.87 12.27 -3.43 12.27 -2.9C12.27 -2.38 12.19 -1.91 12.02 -1.5C11.93 -1.27 11.82 -1.08 11.69 -0.92C11.55 -0.75 11.38 -0.62 11.18 -0.53C10.98 -0.43 10.75 -0.38 10.5 -0.38C10.24 -0.38 10 -0.44 9.77 -0.56C9.54 -0.68 9.35 -0.85 9.18 -1.05C9.01 -1.26 8.87 -1.5 8.74 -1.76C8.62 -2.03 8.53 -2.31 8.46 -2.61C8.4 -2.91 8.37 -3.23 8.37 -3.56Z M15.76 -5.38L16.52 -5.38L16.52 -1.53C16.52 -1.04 16.64 -0.64 16.88 -0.33C17 -0.17 17.16 -0.05 17.37 0.04C17.57 0.13 17.81 0.18 18.08 0.18C18.35 0.18 18.64 0.12 18.94 0.01C19.24 -0.1 19.49 -0.24 19.69 -0.41C19.89 -0.57 19.99 -0.71 19.99 -0.84C19.99 -0.96 19.95 -1.02 19.88 -1.02C19.87 -1.02 19.81 -1 19.7 -0.95C19.59 -0.89 19.44 -0.84 19.26 -0.79C19.08 -0.74 18.91 -0.72 18.75 -0.72C18.58 -0.72 18.44 -0.73 18.32 -0.76C17.87 -0.88 17.64 -1.18 17.64 -1.66L17.64 -5.38L19.7 -5.38L19.8 -6.15L17.64 -6.15L17.64 -7.73C17.64 -7.8 17.61 -7.84 17.54 -7.84C17.51 -7.84 17.3 -7.6 16.92 -7.12C16.74 -6.9 16.61 -6.73 16.52 -6.63C16.43 -6.53 16.25 -6.33 15.97 -6.04C15.7 -5.74 15.56 -5.57 15.56 -5.51C15.56 -5.42 15.63 -5.38 15.76 -5.38Z M25.7 -5.42C25.92 -5.42 26.11 -5.36 26.29 -5.26C26.62 -5.06 26.78 -4.71 26.78 -4.2L26.78 -0.96C26.78 -0.76 26.74 -0.64 26.64 -0.59C26.54 -0.54 26.34 -0.51 26.02 -0.51L25.76 -0.51L25.78 0L28.84 0L28.84 -0.51L28.59 -0.51C28.34 -0.51 28.19 -0.52 28.12 -0.54C28.06 -0.55 28.01 -0.57 27.96 -0.6C27.92 -0.63 27.9 -0.75 27.9 -0.97L27.9 -3.74C27.9 -4.08 27.89 -4.36 27.88 -4.57C27.87 -4.73 27.86 -4.86 27.84 -4.97C27.82 -5.07 27.79 -5.19 27.76 -5.33C27.72 -5.46 27.68 -5.57 27.62 -5.66C27.57 -5.74 27.51 -5.83 27.43 -5.92C27.35 -6.01 27.27 -6.08 27.17 -6.13C27.07 -6.18 26.95 -6.22 26.82 -6.26C26.68 -6.29 26.52 -6.31 26.33 -6.31C26.14 -6.31 25.9 -6.26 25.63 -6.18C25.52 -6.14 25.41 -6.09 25.28 -6.02C25.16 -5.95 25.02 -5.88 24.89 -5.8C24.75 -5.72 24.46 -5.49 24.02 -5.13L24.02 -11.59C22.96 -11.43 22.28 -11.34 21.99 -11.31L21.99 -10.75C22.38 -10.81 22.6 -10.84 22.68 -10.84C22.75 -10.84 22.8 -10.81 22.84 -10.74C22.88 -10.67 22.9 -10.55 22.9 -10.36L22.9 -0.88C22.9 -0.75 22.86 -0.65 22.78 -0.57C22.73 -0.53 22.53 -0.51 22.17 -0.51L21.99 -0.51L22.01 0L25.1 0L25.12 -0.51L24.84 -0.51C24.49 -0.51 24.27 -0.53 24.17 -0.57C24.07 -0.61 24.02 -0.72 24.02 -0.88L24.02 -4.65C24.63 -5.16 25.19 -5.42 25.7 -5.42Z M32 -3.61L36.01 -4.09C36.05 -4.09 36.11 -4.11 36.17 -4.15C36.23 -4.19 36.26 -4.25 36.26 -4.33C36.26 -4.6 36.11 -4.92 35.82 -5.29C35.25 -6.01 34.51 -6.37 33.61 -6.37C32.8 -6.37 32.14 -6.06 31.6 -5.43C31.05 -4.79 30.78 -3.95 30.78 -2.92C30.78 -2 31.06 -1.24 31.61 -0.64C32.13 -0.08 32.83 0.21 33.71 0.21C34.35 0.21 34.94 0.04 35.48 -0.29C35.7 -0.43 35.9 -0.57 36.08 -0.73C36.26 -0.88 36.39 -1.02 36.48 -1.15C36.57 -1.28 36.61 -1.39 36.61 -1.49C36.61 -1.58 36.56 -1.63 36.47 -1.63C36.42 -1.63 36.25 -1.54 35.96 -1.36C35.84 -1.29 35.71 -1.22 35.56 -1.14C35.42 -1.07 35.23 -1.01 35.02 -0.96C34.8 -0.9 34.55 -0.88 34.27 -0.88C33.98 -0.88 33.69 -0.93 33.41 -1.04C32.46 -1.42 31.98 -2.2 31.98 -3.38ZM32.03 -4.17C32.11 -4.68 32.29 -5.08 32.56 -5.38C32.82 -5.68 33.09 -5.83 33.37 -5.83C33.65 -5.83 33.89 -5.74 34.1 -5.57C34.18 -5.5 34.3 -5.36 34.45 -5.17C34.6 -4.97 34.71 -4.76 34.77 -4.52Z M39.96 -5.06L39.96 -1.17C39.96 -0.94 39.94 -0.79 39.92 -0.72C39.9 -0.66 39.86 -0.61 39.82 -0.57C39.78 -0.53 39.59 -0.51 39.25 -0.51L38.95 -0.51L38.95 0L42.77 0L42.77 -0.51L42.08 -0.51C41.62 -0.51 41.33 -0.55 41.23 -0.62C41.13 -0.68 41.07 -0.86 41.07 -1.17L41.07 -3.86C41.07 -4.06 41.15 -4.25 41.3 -4.43C41.44 -4.61 41.62 -4.75 41.82 -4.85C42.02 -4.95 42.21 -5 42.38 -5C42.64 -5 42.77 -4.88 42.77 -4.63L42.77 -4.43L43.02 -4.33L43.63 -5.91C43.58 -5.98 43.54 -6.02 43.51 -6.05C43.32 -6.22 43.06 -6.31 42.75 -6.31C42.46 -6.31 42.18 -6.17 41.91 -5.9C41.79 -5.79 41.68 -5.66 41.57 -5.51C41.46 -5.37 41.34 -5.2 41.22 -5C41.1 -4.8 41.04 -4.69 41.04 -4.68L41.04 -6.48C40.64 -6.38 40.32 -6.31 40.1 -6.25C39.87 -6.2 39.68 -6.15 39.54 -6.12C39.4 -6.09 39.3 -6.07 39.25 -6.06C39.2 -6.05 39.12 -6.03 39.01 -6.01C38.9 -5.99 38.8 -5.98 38.71 -5.96L38.76 -5.46C39.37 -5.58 39.7 -5.64 39.77 -5.64C39.89 -5.64 39.96 -5.45 39.96 -5.06Z M46.27 -3.96C46.36 -3.96 46.47 -4 46.59 -4.08C46.72 -4.16 46.78 -4.25 46.78 -4.34C46.78 -4.44 46.75 -4.6 46.69 -4.82C46.66 -4.92 46.64 -5.01 46.62 -5.08C46.67 -5.19 46.79 -5.3 46.97 -5.4C47.06 -5.45 47.18 -5.49 47.35 -5.52C47.52 -5.56 47.74 -5.58 48.03 -5.58C48.31 -5.58 48.54 -5.5 48.71 -5.36C48.89 -5.2 48.98 -4.9 48.98 -4.44L48.98 -3.48C48.4 -3.48 47.86 -3.37 47.36 -3.14C46.87 -2.92 46.48 -2.62 46.2 -2.25C45.92 -1.87 45.78 -1.47 45.78 -1.05C45.78 -0.63 45.94 -0.31 46.26 -0.11C46.41 -0.01 46.56 0.06 46.73 0.11C46.89 0.15 47.11 0.18 47.36 0.18C47.62 0.18 47.93 0.08 48.27 -0.12C48.62 -0.32 48.9 -0.56 49.11 -0.85C49.34 -0.55 49.53 -0.32 49.66 -0.17C49.77 -0.04 49.95 0.11 50.18 0.27C50.21 0.27 50.51 0.09 51.08 -0.26C51.22 -0.34 51.28 -0.41 51.28 -0.48C51.28 -0.54 51.24 -0.58 51.14 -0.61C50.8 -0.7 50.54 -0.84 50.37 -1.03C50.19 -1.23 50.1 -1.58 50.1 -2.06L50.1 -5.05C50.1 -5.27 50.07 -5.46 49.99 -5.62C49.77 -6.09 49.34 -6.32 48.7 -6.32C47.56 -6.32 46.76 -6.01 46.28 -5.39C46.03 -5.07 45.9 -4.78 45.9 -4.53C45.9 -4.15 46.02 -3.96 46.27 -3.96ZM46.89 -1.46C46.89 -1.86 47.07 -2.22 47.44 -2.54C47.82 -2.88 48.34 -3.05 48.98 -3.05L48.98 -1.56C48.98 -1.39 48.94 -1.24 48.86 -1.11C48.8 -1.02 48.74 -0.95 48.66 -0.89C48.58 -0.83 48.47 -0.78 48.33 -0.74C48.19 -0.71 47.99 -0.69 47.74 -0.69C47.48 -0.69 47.28 -0.76 47.12 -0.91C46.97 -1.07 46.89 -1.25 46.89 -1.46Z M53.67 -5.54C53.84 -5.54 53.93 -5.39 53.93 -5.1L53.93 3.24C53.93 3.36 53.91 3.45 53.86 3.49C53.83 3.53 53.78 3.56 53.7 3.58C53.62 3.61 53.33 3.63 52.84 3.63L52.86 4.14L56.53 4.14L56.55 3.63L56.31 3.63C55.77 3.63 55.43 3.6 55.28 3.56C55.12 3.52 55.05 3.41 55.05 3.22L55.05 -0.08L55.29 -0.01C55.78 0.12 56.36 0.19 57.02 0.19C57.76 0.19 58.38 -0.02 58.9 -0.44C59.14 -0.65 59.35 -0.89 59.53 -1.17C59.71 -1.45 59.84 -1.76 59.94 -2.11C60.03 -2.45 60.08 -2.86 60.08 -3.33C60.08 -3.8 59.96 -4.27 59.73 -4.74C59.5 -5.21 59.19 -5.59 58.78 -5.87C58.37 -6.15 57.92 -6.29 57.43 -6.29C57.2 -6.29 56.96 -6.25 56.71 -6.17C56.1 -5.96 55.54 -5.61 55.05 -5.11L55.05 -6.42C54.96 -6.4 54.66 -6.32 54.14 -6.18C53.62 -6.04 53.22 -5.94 52.94 -5.89L52.95 -5.38ZM55.05 -0.88L55.05 -4.62C55.05 -4.62 55.08 -4.64 55.14 -4.69C55.65 -5.13 56.18 -5.35 56.71 -5.35C57.33 -5.35 57.86 -5.09 58.3 -4.58C58.49 -4.34 58.65 -4.06 58.77 -3.73C58.88 -3.4 58.94 -3.05 58.94 -2.66C58.94 -2.27 58.86 -1.88 58.7 -1.5C58.61 -1.28 58.49 -1.09 58.35 -0.92C58.21 -0.75 58.02 -0.61 57.79 -0.5C57.55 -0.39 57.3 -0.34 57.05 -0.34C56.79 -0.34 56.47 -0.37 56.07 -0.44C55.68 -0.52 55.34 -0.66 55.05 -0.88Z M62.14 2.75C61.96 2.75 61.82 2.8 61.71 2.91C61.59 3.02 61.54 3.19 61.54 3.4C61.54 3.62 61.6 3.8 61.71 3.93C61.83 4.07 61.98 4.14 62.17 4.14C62.37 4.14 62.54 4.1 62.69 4.04C63.23 3.81 64 2.61 64.97 0.46L67.4 -4.9C67.46 -5.04 67.52 -5.18 67.58 -5.31C67.59 -5.35 67.62 -5.39 67.65 -5.45C67.68 -5.51 67.7 -5.55 67.71 -5.57C67.73 -5.58 67.75 -5.61 67.78 -5.64C67.81 -5.68 67.84 -5.69 67.86 -5.7C67.89 -5.71 67.93 -5.71 67.97 -5.73C68.02 -5.74 68.11 -5.75 68.26 -5.75L68.64 -5.75L68.64 -6.26L66.04 -6.26L66.04 -5.75L66.26 -5.75C66.53 -5.75 66.72 -5.74 66.82 -5.71C66.92 -5.68 66.97 -5.61 66.97 -5.51C66.97 -5.4 66.79 -4.96 66.44 -4.18L65.43 -1.92L64.08 -4.97C64.07 -4.99 64.05 -5.04 64.02 -5.11C63.99 -5.18 63.96 -5.23 63.95 -5.27C63.94 -5.3 63.92 -5.35 63.91 -5.4C63.89 -5.45 63.89 -5.51 63.89 -5.57C63.89 -5.64 63.93 -5.68 64.01 -5.71C64.09 -5.74 64.24 -5.75 64.44 -5.75L64.72 -5.75L64.75 -6.26L61.7 -6.26L61.73 -5.75L61.97 -5.75C62.03 -5.75 62.09 -5.75 62.16 -5.74C62.23 -5.72 62.27 -5.72 62.3 -5.71C62.33 -5.71 62.37 -5.69 62.41 -5.66C62.46 -5.63 62.49 -5.6 62.5 -5.59C62.51 -5.57 62.54 -5.54 62.57 -5.48C62.61 -5.41 62.64 -5.37 62.65 -5.33C62.66 -5.3 62.69 -5.23 62.74 -5.13C62.78 -5.03 62.82 -4.95 62.85 -4.89L64.85 -0.59L64.37 0.34C63.9 1.24 63.53 1.87 63.26 2.24C62.99 2.6 62.78 2.78 62.61 2.78Z M69.4 2.11C69.4 2.26 69.47 2.33 69.61 2.33C69.74 2.33 69.92 2.29 70.14 2.21C70.36 2.14 70.57 2.01 70.75 1.83C70.94 1.65 71.11 1.38 71.25 1.03C71.39 0.68 71.47 0.32 71.47 -0.05C71.47 -0.42 71.37 -0.71 71.17 -0.92C71.09 -1 71 -1.07 70.9 -1.12C70.81 -1.17 70.73 -1.2 70.68 -1.21C70.63 -1.22 70.59 -1.23 70.55 -1.23C70.52 -1.23 70.44 -1.18 70.33 -1.1C70.21 -1.01 70.1 -0.91 69.99 -0.78C69.89 -0.66 69.84 -0.56 69.84 -0.48C69.84 -0.4 69.9 -0.32 70.01 -0.27C70.06 -0.24 70.12 -0.21 70.18 -0.16C70.24 -0.12 70.31 -0.06 70.4 0.03C70.48 0.11 70.52 0.27 70.52 0.51C70.52 0.87 70.43 1.16 70.23 1.38C70.15 1.47 70.06 1.56 69.96 1.63C69.86 1.71 69.75 1.79 69.61 1.87C69.47 1.95 69.4 2.03 69.4 2.11Z M82.08 -0.73C81.87 -0.73 81.73 -0.77 81.67 -0.85C81.6 -0.93 81.57 -1.11 81.57 -1.39L81.57 -5.16C81.57 -5.37 81.6 -5.51 81.67 -5.58C81.72 -5.63 81.88 -5.65 82.14 -5.65L84.72 -5.65C84.76 -5.65 84.8 -5.65 84.85 -5.64C84.91 -5.63 84.94 -5.62 84.96 -5.61C84.97 -5.6 85 -5.56 85.05 -5.51C85.09 -5.45 85.12 -5.2 85.12 -4.76L85.12 -3.93L85.71 -3.93L85.71 -7.75L85.12 -7.76L85.12 -7.15C85.12 -6.89 85.1 -6.71 85.08 -6.62C85.06 -6.56 85.04 -6.49 84.99 -6.44C84.95 -6.38 84.79 -6.35 84.51 -6.35L82.1 -6.35C81.91 -6.35 81.79 -6.37 81.73 -6.39C81.69 -6.41 81.65 -6.44 81.62 -6.47C81.59 -6.51 81.57 -6.68 81.57 -6.99L81.57 -9.21C81.57 -9.48 81.59 -9.65 81.62 -9.72C81.64 -9.79 81.69 -9.85 81.75 -9.9C81.81 -9.94 82.06 -9.97 82.5 -9.97L85.21 -9.97C85.63 -9.97 85.87 -9.96 85.96 -9.95C86.04 -9.94 86.1 -9.92 86.14 -9.88C86.26 -9.75 86.34 -9.16 86.38 -8.11L87 -8.14C86.96 -8.9 86.94 -9.73 86.92 -10.65L78.7 -10.65L78.71 -10.01L79.16 -10.01C79.69 -10.01 80.01 -9.98 80.11 -9.92C80.22 -9.84 80.28 -9.64 80.28 -9.33L80.28 -1.23C80.28 -1.03 80.26 -0.89 80.24 -0.83C80.21 -0.77 80.17 -0.72 80.11 -0.68C80.06 -0.64 79.83 -0.62 79.43 -0.62L79.02 -0.62L79.02 0L87.11 0L87.51 -2.48L86.97 -2.55C86.83 -1.71 86.74 -1.25 86.71 -1.16C86.68 -1.08 86.64 -1.01 86.58 -0.95C86.52 -0.89 86.29 -0.85 85.89 -0.81C85.48 -0.78 84.21 -0.75 82.08 -0.73Z M95.15 0.41C95.51 0.31 95.92 0.18 96.41 0.03C96.89 -0.12 97.24 -0.23 97.45 -0.29L97.45 -0.72C97.31 -0.68 97.16 -0.63 97 -0.58C96.85 -0.53 96.73 -0.49 96.64 -0.47C96.56 -0.45 96.48 -0.43 96.41 -0.43C96.34 -0.43 96.3 -0.48 96.27 -0.57C96.25 -0.66 96.24 -0.84 96.24 -1.12L96.24 -11.67C95.15 -11.39 94.34 -11.2 93.81 -11.1L93.84 -10.6C94.46 -10.74 94.81 -10.81 94.9 -10.81C95.05 -10.81 95.12 -10.66 95.12 -10.36L95.12 -5.61C94.5 -6.07 93.8 -6.31 93.03 -6.31C92.26 -6.31 91.56 -5.99 90.92 -5.36C90.63 -5.06 90.39 -4.71 90.21 -4.28C90.02 -3.86 89.93 -3.42 89.93 -2.96C89.93 -2.02 90.21 -1.26 90.77 -0.67C91.32 -0.1 91.99 0.19 92.77 0.19C93.7 0.19 94.5 -0.21 95.15 -1.01C95.16 -0.97 95.17 -0.89 95.17 -0.75ZM91.25 -4.43C91.35 -4.72 91.49 -4.97 91.67 -5.17C91.85 -5.37 92.05 -5.53 92.29 -5.64C92.54 -5.76 92.78 -5.81 93.04 -5.81C93.3 -5.81 93.54 -5.78 93.78 -5.7C94.37 -5.51 94.82 -5.21 95.12 -4.79L95.12 -1.36C94.99 -1.22 94.76 -1.06 94.43 -0.88C94.24 -0.77 93.96 -0.72 93.6 -0.72C92.83 -0.72 92.22 -1 91.76 -1.57C91.55 -1.83 91.39 -2.13 91.27 -2.46C91.15 -2.8 91.1 -3.14 91.1 -3.49C91.1 -3.83 91.15 -4.15 91.25 -4.43Z M99.73 -5.75C99.85 -5.75 99.93 -5.72 99.97 -5.67C100.01 -5.62 100.04 -5.51 100.04 -5.35L100.04 -2.2C100.04 -1.82 100.07 -1.48 100.13 -1.19C100.17 -1.02 100.21 -0.87 100.27 -0.73C100.33 -0.59 100.41 -0.46 100.51 -0.34C100.6 -0.22 100.72 -0.11 100.84 -0.03C100.97 0.05 101.13 0.12 101.31 0.17C101.49 0.21 101.69 0.24 101.9 0.24C102.12 0.24 102.33 0.2 102.55 0.12C103.1 -0.06 103.57 -0.37 103.96 -0.8C104.02 -0.42 104.06 -0.04 104.08 0.34C104.19 0.3 104.45 0.23 104.86 0.12C105.27 0 105.66 -0.1 106.04 -0.18L106.04 -0.69C105.64 -0.57 105.4 -0.51 105.31 -0.51C105.23 -0.51 105.17 -0.55 105.11 -0.62C105.06 -0.68 105.03 -1.07 105.03 -1.77L105.03 -6.42C104.17 -6.28 103.44 -6.19 102.85 -6.15L102.89 -5.65C102.91 -5.67 103.05 -5.69 103.32 -5.72C103.44 -5.73 103.54 -5.73 103.63 -5.73C103.72 -5.73 103.79 -5.7 103.84 -5.64C103.89 -5.58 103.92 -5.46 103.92 -5.26L103.92 -1.36C103.61 -0.95 103.13 -0.75 102.48 -0.75C102.03 -0.75 101.7 -0.86 101.49 -1.07C101.26 -1.29 101.15 -1.75 101.15 -2.43L101.15 -6.42C100.68 -6.34 100.03 -6.25 99.21 -6.18L99.21 -5.7Z M108.25 -3.93C108.18 -3.59 108.14 -3.22 108.14 -2.82C108.14 -2.41 108.2 -2.02 108.32 -1.64C108.7 -0.41 109.64 0.21 111.14 0.21C111.77 0.21 112.38 0.05 112.97 -0.27C113.21 -0.4 113.4 -0.53 113.56 -0.66C113.71 -0.79 113.79 -0.91 113.79 -1C113.79 -1.09 113.75 -1.13 113.67 -1.13C113.62 -1.13 113.55 -1.11 113.44 -1.07C113.34 -1.03 113.22 -0.99 113.09 -0.94C112.97 -0.9 112.77 -0.85 112.5 -0.81C112.24 -0.77 111.91 -0.75 111.52 -0.75C111.12 -0.75 110.74 -0.86 110.36 -1.09C110.15 -1.21 109.97 -1.37 109.81 -1.55C109.65 -1.74 109.52 -1.98 109.42 -2.28C109.32 -2.58 109.27 -2.93 109.27 -3.34C109.27 -3.74 109.33 -4.14 109.46 -4.54C109.53 -4.77 109.62 -4.97 109.73 -5.15C109.84 -5.33 109.98 -5.47 110.17 -5.59C110.35 -5.71 110.56 -5.77 110.8 -5.77C111.03 -5.77 111.29 -5.66 111.57 -5.45C111.68 -5.36 111.8 -5.27 111.91 -5.19C112.02 -5.1 112.13 -5.02 112.24 -4.96C112.35 -4.9 112.46 -4.87 112.56 -4.87C112.66 -4.87 112.83 -4.91 113.08 -4.98C113.2 -5.02 113.3 -5.07 113.39 -5.13C113.48 -5.2 113.52 -5.27 113.52 -5.34C113.52 -5.41 113.46 -5.5 113.35 -5.61C112.8 -6.14 112.04 -6.4 111.08 -6.4C110.33 -6.4 109.7 -6.16 109.21 -5.67C108.98 -5.44 108.78 -5.18 108.62 -4.88C108.45 -4.58 108.33 -4.27 108.25 -3.93Z M116.56 -3.96C116.65 -3.96 116.76 -4 116.88 -4.08C117.01 -4.16 117.07 -4.25 117.07 -4.34C117.07 -4.44 117.04 -4.6 116.98 -4.82C116.95 -4.92 116.93 -5.01 116.91 -5.08C116.97 -5.19 117.08 -5.3 117.26 -5.4C117.35 -5.45 117.48 -5.49 117.64 -5.52C117.81 -5.56 118.03 -5.58 118.32 -5.58C118.6 -5.58 118.83 -5.5 119 -5.36C119.19 -5.2 119.28 -4.9 119.28 -4.44L119.28 -3.48C118.69 -3.48 118.15 -3.37 117.65 -3.14C117.16 -2.92 116.77 -2.62 116.49 -2.25C116.21 -1.87 116.07 -1.47 116.07 -1.05C116.07 -0.63 116.23 -0.31 116.55 -0.11C116.7 -0.01 116.85 0.06 117.02 0.11C117.19 0.15 117.4 0.18 117.66 0.18C117.92 0.18 118.22 0.08 118.57 -0.12C118.91 -0.32 119.19 -0.56 119.41 -0.85C119.64 -0.55 119.82 -0.32 119.95 -0.17C120.06 -0.04 120.24 0.11 120.47 0.27C120.5 0.27 120.8 0.09 121.37 -0.26C121.51 -0.34 121.58 -0.41 121.58 -0.48C121.58 -0.54 121.53 -0.58 121.43 -0.61C121.09 -0.7 120.83 -0.84 120.66 -1.03C120.49 -1.23 120.4 -1.58 120.4 -2.06L120.4 -5.05C120.4 -5.27 120.36 -5.46 120.28 -5.62C120.06 -6.09 119.63 -6.32 118.99 -6.32C117.85 -6.32 117.05 -6.01 116.57 -5.39C116.32 -5.07 116.19 -4.78 116.19 -4.53C116.19 -4.15 116.32 -3.96 116.56 -3.96ZM117.18 -1.46C117.18 -1.86 117.36 -2.22 117.73 -2.54C118.12 -2.88 118.63 -3.05 119.28 -3.05L119.28 -1.56C119.28 -1.39 119.23 -1.24 119.15 -1.11C119.1 -1.02 119.03 -0.95 118.95 -0.89C118.87 -0.83 118.76 -0.78 118.62 -0.74C118.48 -0.71 118.28 -0.69 118.03 -0.69C117.77 -0.69 117.57 -0.76 117.41 -0.91C117.26 -1.07 117.18 -1.25 117.18 -1.46Z M123.45 -5.38L124.22 -5.38L124.22 -1.53C124.22 -1.04 124.34 -0.64 124.58 -0.33C124.69 -0.17 124.86 -0.05 125.06 0.04C125.27 0.13 125.51 0.18 125.78 0.18C126.05 0.18 126.34 0.12 126.64 0.01C126.94 -0.1 127.19 -0.24 127.39 -0.41C127.59 -0.57 127.69 -0.71 127.69 -0.84C127.69 -0.96 127.65 -1.02 127.57 -1.02C127.56 -1.02 127.5 -1 127.39 -0.95C127.28 -0.89 127.14 -0.84 126.96 -0.79C126.78 -0.74 126.61 -0.72 126.44 -0.72C126.28 -0.72 126.14 -0.73 126.02 -0.76C125.57 -0.88 125.34 -1.18 125.34 -1.66L125.34 -5.38L127.4 -5.38L127.5 -6.15L125.34 -6.15L125.34 -7.73C125.34 -7.8 125.31 -7.84 125.24 -7.84C125.2 -7.84 124.99 -7.6 124.62 -7.12C124.44 -6.9 124.31 -6.73 124.22 -6.63C124.13 -6.53 123.94 -6.33 123.67 -6.04C123.4 -5.74 123.26 -5.57 123.26 -5.51C123.26 -5.42 123.32 -5.38 123.45 -5.38Z M129.83 -6L129.85 -5.52C130.29 -5.61 130.56 -5.65 130.68 -5.65C130.8 -5.65 130.88 -5.62 130.91 -5.55C130.95 -5.48 130.97 -5.35 130.97 -5.14L130.97 -0.88C130.97 -0.75 130.92 -0.65 130.84 -0.58C130.8 -0.53 130.53 -0.51 130.04 -0.51L129.9 -0.51L129.9 0L133.36 0L133.36 -0.51L133.07 -0.51C132.63 -0.51 132.35 -0.54 132.22 -0.58C132.13 -0.62 132.08 -0.74 132.08 -0.94L132.08 -6.48C131.37 -6.29 130.62 -6.13 129.83 -6ZM131.27 -9.04C131.42 -8.86 131.56 -8.76 131.67 -8.76C131.78 -8.76 131.93 -8.86 132.11 -9.04C132.3 -9.22 132.39 -9.37 132.39 -9.48C132.39 -9.59 132.3 -9.73 132.12 -9.9C131.94 -10.07 131.8 -10.16 131.69 -10.16C131.59 -10.16 131.45 -10.08 131.28 -9.91C131.12 -9.75 131.03 -9.61 131.03 -9.5C131.03 -9.38 131.11 -9.23 131.27 -9.04Z M135.48 -3.12C135.48 -2.42 135.65 -1.79 135.98 -1.24C136.58 -0.25 137.47 0.24 138.67 0.24C139.69 0.24 140.5 -0.07 141.11 -0.68C141.7 -1.28 141.99 -2.03 141.99 -2.94C141.99 -4 141.69 -4.84 141.08 -5.48C140.5 -6.1 139.69 -6.4 138.64 -6.4C137.79 -6.4 137.11 -6.18 136.58 -5.72C136.33 -5.52 136.13 -5.27 135.96 -4.99C135.79 -4.71 135.67 -4.41 135.59 -4.09C135.52 -3.78 135.48 -3.46 135.48 -3.12ZM136.76 -3.56C136.76 -4.29 136.93 -4.85 137.28 -5.27C137.61 -5.66 138.02 -5.86 138.5 -5.86C139.09 -5.86 139.6 -5.62 140.01 -5.15C140.21 -4.92 140.36 -4.62 140.48 -4.25C140.6 -3.87 140.65 -3.43 140.65 -2.9C140.65 -2.38 140.57 -1.91 140.4 -1.5C140.32 -1.27 140.2 -1.08 140.07 -0.92C139.94 -0.75 139.77 -0.62 139.57 -0.53C139.36 -0.43 139.13 -0.38 138.88 -0.38C138.63 -0.38 138.38 -0.44 138.16 -0.56C137.93 -0.68 137.73 -0.85 137.56 -1.05C137.4 -1.26 137.25 -1.5 137.13 -1.76C137 -2.03 136.91 -2.31 136.85 -2.61C136.79 -2.91 136.76 -3.23 136.76 -3.56Z M148.62 -5.14C148.78 -4.96 148.86 -4.64 148.86 -4.2L148.86 -0.99C148.86 -0.82 148.84 -0.69 148.79 -0.6C148.76 -0.54 148.6 -0.51 148.32 -0.51L147.96 -0.51L147.97 0L150.94 0L150.96 -0.51C150.55 -0.51 150.28 -0.53 150.16 -0.58C150.04 -0.63 149.98 -0.76 149.98 -0.99L149.98 -3.74C149.98 -4.18 149.97 -4.53 149.95 -4.79C149.93 -5 149.9 -5.16 149.86 -5.28C149.82 -5.41 149.77 -5.54 149.69 -5.69C149.62 -5.83 149.53 -5.95 149.42 -6.03C149.32 -6.1 149.19 -6.17 149.02 -6.23C148.86 -6.28 148.61 -6.31 148.27 -6.31C147.93 -6.31 147.55 -6.2 147.13 -5.98C146.95 -5.88 146.79 -5.79 146.65 -5.7C146.51 -5.6 146.38 -5.51 146.27 -5.43C146.16 -5.35 146.09 -5.3 146.05 -5.29C146.05 -5.63 146.07 -6.01 146.1 -6.42L144.14 -6.02L144.14 -5.52C144.51 -5.61 144.72 -5.65 144.74 -5.65C144.85 -5.65 144.92 -5.61 144.94 -5.51C144.97 -5.41 144.99 -5.19 144.99 -4.85L144.99 -0.88C144.99 -0.85 144.98 -0.81 144.97 -0.75C144.97 -0.7 144.96 -0.67 144.95 -0.65C144.94 -0.64 144.92 -0.62 144.89 -0.59C144.87 -0.57 144.84 -0.55 144.81 -0.55C144.78 -0.54 144.74 -0.53 144.68 -0.52C144.62 -0.52 144.55 -0.51 144.45 -0.51L144.11 -0.51L144.12 0L147.24 0L147.27 -0.51L147.06 -0.51C146.79 -0.51 146.6 -0.52 146.51 -0.53C146.43 -0.54 146.37 -0.54 146.33 -0.55C146.3 -0.55 146.25 -0.58 146.19 -0.62C146.13 -0.67 146.1 -0.76 146.1 -0.89L146.1 -4.9C146.79 -5.24 147.34 -5.42 147.76 -5.42C148.17 -5.42 148.46 -5.32 148.62 -5.14Z"></path></g></g></g></svg>